NotoSerifDisplay-CondensedSemiBoldItalic.ufo
<glyph name="hyphen" format="2">
  <advance width="251"/>
  <unicode hex="002D"/>
  <outline>
    <contour>
      <point x="21" y="269" type="line"/>
      <point x="230" y="269" type="line"/>
      <point x="235" y="289" type="line"/>
      <point x="25" y="289" type="line"/>
    </contour>
  </outline>
</glyph>
<glyph name="eight" format="2">
  <advance width="485"/>
  <unicode hex="0038"/>
  <outline>
    <contour>
      <point x="219" y="-10" type="curve" smooth="yes"/>
      <point x="357" y="-10"/>
      <point x="443" y="73"/>
      <point x="443" y="201" type="curve" smooth="yes"/>
      <point x="443" y="302"/>
      <point x="377" y="354"/>
      <point x="315" y="397" type="curve"/>
      <point x="418" y="427"/>
      <point x="485" y="481"/>
      <point x="485" y="582" type="curve" smooth="yes"/>
      <point x="485" y="665"/>
      <point x="430" y="724"/>
      <point x="317" y="724" type="curve" smooth="yes"/>
      <point x="166" y="724"/>
      <point x="108" y="631"/>
      <point x="108" y="538" type="curve" smooth="yes"/>
      <point x="108" y="464"/>
      <point x="140" y="406"/>
      <point x="207" y="354" type="curve"/>
      <point x="88" y="322"/>
      <point x="23" y="261"/>
      <point x="23" y="155" type="curve" smooth="yes"/>
      <point x="23" y="58"/>
      <point x="91" y="-10"/>
    </contour>
    <contour>
      <point x="222" y="0" type="curve" smooth="yes"/>
      <point x="167" y="0"/>
      <point x="128" y="36"/>
      <point x="128" y="134" type="curve" smooth="yes"/>
      <point x="128" y="229"/>
      <point x="167" y="303"/>
      <point x="216" y="346" type="curve"/>
      <point x="282" y="297"/>
      <point x="335" y="251"/>
      <point x="335" y="168" type="curve" smooth="yes"/>
      <point x="335" y="73"/>
      <point x="292" y="0"/>
    </contour>
    <contour>
      <point x="307" y="405" type="curve"/>
      <point x="262" y="441"/>
      <point x="218" y="477"/>
      <point x="218" y="563" type="curve" smooth="yes"/>
      <point x="218" y="647"/>
      <point x="251" y="714"/>
      <point x="311" y="714" type="curve" smooth="yes"/>
      <point x="356" y="714"/>
      <point x="384" y="681"/>
      <point x="384" y="593" type="curve" smooth="yes"/>
      <point x="384" y="504"/>
      <point x="357" y="438"/>
    </contour>
  </outline>
</glyph>
<glyph name="K" format="2">
  <advance width="594"/>
  <unicode hex="004B"/>
  <anchor x="233" y="0" name="bottom"/>
  <anchor x="385" y="714" name="top"/>
  <anchor x="667" y="714" name="topright"/>
  <outline>
    <contour>
      <point x="-35" y="0" type="line"/>
      <point x="253" y="0" type="line"/>
      <point x="256" y="10" type="line"/>
      <point x="241" y="10" type="line" smooth="yes"/>
      <point x="208" y="10"/>
      <point x="186" y="15"/>
      <point x="186" y="40" type="curve" smooth="yes"/>
      <point x="186" y="51"/>
      <point x="190" y="66"/>
      <point x="193" y="81" type="curve" smooth="yes"/>
      <point x="244" y="313" type="line"/>
      <point x="289" y="360" type="line"/>
      <point x="274" y="351" type="line"/>
      <point x="332" y="145" type="line" smooth="yes"/>
      <point x="367" y="11"/>
      <point x="391" y="0"/>
      <point x="489" y="0" type="curve" smooth="yes"/>
      <point x="547" y="0" type="line"/>
      <point x="549" y="10" type="line"/>
      <point x="542" y="10" type="line" smooth="yes"/>
      <point x="521" y="10"/>
      <point x="512" y="41"/>
      <point x="481" y="143" type="curve" smooth="yes"/>
      <point x="384" y="468" type="line"/>
      <point x="337" y="406" type="line"/>
      <point x="537" y="619" type="line" smooth="yes"/>
      <point x="600" y="685"/>
      <point x="629" y="704"/>
      <point x="675" y="704" type="curve"/>
      <point x="678" y="714" type="line"/>
      <point x="451" y="714" type="line"/>
      <point x="449" y="704" type="line"/>
      <point x="478" y="704"/>
      <point x="527" y="704"/>
      <point x="527" y="666" type="curve" smooth="yes"/>
      <point x="527" y="640"/>
      <point x="517" y="614"/>
      <point x="469" y="563" type="curve" smooth="yes"/>
      <point x="247" y="331" type="line"/>
      <point x="313" y="648" type="line" smooth="yes"/>
      <point x="323" y="698"/>
      <point x="348" y="704"/>
      <point x="381" y="704" type="curve" smooth="yes"/>
      <point x="395" y="704" type="line"/>
      <point x="397" y="714" type="line"/>
      <point x="116" y="714" type="line"/>
      <point x="114" y="704" type="line"/>
      <point x="129" y="704" type="line" smooth="yes"/>
      <point x="162" y="704"/>
      <point x="183" y="699"/>
      <point x="183" y="675" type="curve" smooth="yes"/>
      <point x="183" y="669"/>
      <point x="181" y="660"/>
      <point x="177" y="641" type="curve" smooth="yes"/>
      <point x="55" y="68" type="line" smooth="yes"/>
      <point x="44" y="18"/>
      <point x="17" y="10"/>
      <point x="-17" y="10" type="curve" smooth="yes"/>
      <point x="-31" y="10" type="line"/>
    </contour>
  </outline>
</glyph>
<glyph name="Y" format="2">
  <advance width="569"/>
  <unicode hex="0059"/>
  <anchor x="219" y="0" name="bottom"/>
  <anchor x="381" y="714" name="top"/>
  <anchor x="700" y="714" name="topright"/>
  <outline>
    <contour>
      <point x="74" y="0" type="line"/>
      <point x="378" y="0" type="line"/>
      <point x="380" y="10" type="line"/>
      <point x="358" y="10" type="line" smooth="yes"/>
      <point x="325" y="10"/>
      <point x="306" y="14"/>
      <point x="306" y="38" type="curve" smooth="yes"/>
      <point x="306" y="48"/>
      <point x="307" y="56"/>
      <point x="310" y="71" type="curve" smooth="yes"/>
      <point x="348" y="276" type="line"/>
      <point x="553" y="626" type="line" smooth="yes"/>
      <point x="593" y="695"/>
      <point x="614" y="704"/>
      <point x="644" y="704" type="curve" smooth="yes"/>
      <point x="662" y="704" type="line"/>
      <point x="664" y="714" type="line"/>
      <point x="452" y="714" type="line"/>
      <point x="449" y="704" type="line"/>
      <point x="466" y="704" type="line" smooth="yes"/>
      <point x="516" y="704"/>
      <point x="545" y="693"/>
      <point x="545" y="660" type="curve" smooth="yes"/>
      <point x="545" y="650"/>
      <point x="542" y="629"/>
      <point x="528" y="607" type="curve" smooth="yes"/>
      <point x="413" y="407" type="line" smooth="yes"/>
      <point x="385" y="359"/>
      <point x="361" y="319"/>
      <point x="339" y="281" type="curve"/>
      <point x="328" y="358"/>
      <point x="315" y="418"/>
      <point x="307" y="469" type="curve" smooth="yes"/>
      <point x="290" y="560" type="line" smooth="yes"/>
      <point x="279" y="626"/>
      <point x="277" y="646"/>
      <point x="277" y="671" type="curve" smooth="yes"/>
      <point x="277" y="695"/>
      <point x="297" y="704"/>
      <point x="324" y="704" type="curve" smooth="yes"/>
      <point x="362" y="704" type="line"/>
      <point x="364" y="714" type="line"/>
      <point x="94" y="714" type="line"/>
      <point x="93" y="704" type="line"/>
      <point x="104" y="704" type="line" smooth="yes"/>
      <point x="133" y="704"/>
      <point x="140" y="694"/>
      <point x="147" y="654" type="curve" smooth="yes"/>
      <point x="214" y="287" type="line"/>
      <point x="172" y="69" type="line" smooth="yes"/>
      <point x="163" y="21"/>
      <point x="136" y="10"/>
      <point x="101" y="10" type="curve" smooth="yes"/>
      <point x="76" y="10" type="line"/>
    </contour>
  </outline>
</glyph>
<glyph name="b" format="2">
  <advance width="524"/>
  <unicode hex="0062"/>
  <anchor x="208" y="0" name="bottom"/>
  <anchor x="370" y="760" name="top"/>
  <anchor x="606" y="760" name="topright"/>
  <outline>
    <contour>
      <point x="239" y="-10" type="curve" smooth="yes"/>
      <point x="407" y="-10"/>
      <point x="501" y="203"/>
      <point x="501" y="378" type="curve" smooth="yes"/>
      <point x="501" y="491"/>
      <point x="461" y="546"/>
      <point x="387" y="546" type="curve" smooth="yes"/>
      <point x="307" y="546"/>
      <point x="259" y="483"/>
      <point x="227" y="378" type="curve"/>
      <point x="221" y="378" type="line"/>
      <point x="239" y="454"/>
      <point x="266" y="528"/>
      <point x="275" y="571" type="curve" smooth="yes"/>
      <point x="315" y="760" type="line"/>
      <point x="115" y="760" type="line"/>
      <point x="113" y="750" type="line"/>
      <point x="132" y="750" type="line" smooth="yes"/>
      <point x="161" y="750"/>
      <point x="171" y="741"/>
      <point x="171" y="719" type="curve" smooth="yes"/>
      <point x="171" y="706"/>
      <point x="167" y="688"/>
      <point x="162" y="664" type="curve" smooth="yes"/>
      <point x="21" y="-3" type="line"/>
      <point x="31" y="-3" type="line"/>
      <point x="147" y="26" type="line"/>
      <point x="167" y="5"/>
      <point x="196" y="-10"/>
    </contour>
    <contour>
      <point x="213" y="3" type="curve" smooth="yes"/>
      <point x="191" y="3"/>
      <point x="171" y="14"/>
      <point x="159" y="32" type="curve"/>
      <point x="225" y="339" type="line" smooth="yes"/>
      <point x="245" y="430"/>
      <point x="289" y="511"/>
      <point x="334" y="511" type="curve" smooth="yes"/>
      <point x="358" y="511"/>
      <point x="373" y="486"/>
      <point x="373" y="399" type="curve" smooth="yes"/>
      <point x="373" y="219"/>
      <point x="310" y="3"/>
    </contour>
  </outline>
</glyph>
<glyph name="d" format="2">
  <advance width="528"/>
  <unicode hex="0064"/>
  <anchor x="207" y="0" name="bottom"/>
  <anchor x="321" y="268" name="center"/>
  <anchor x="369" y="760" name="top"/>
  <anchor x="605" y="760" name="topright"/>
  <outline>
    <contour>
      <point x="137" y="-10" type="curve" smooth="yes"/>
      <point x="198" y="-10"/>
      <point x="261" y="30"/>
      <point x="304" y="179" type="curve"/>
      <point x="308" y="179" type="line"/>
      <point x="303" y="145"/>
      <point x="299" y="120"/>
      <point x="299" y="80" type="curve" smooth="yes"/>
      <point x="299" y="20"/>
      <point x="330" y="-10"/>
      <point x="385" y="-10" type="curve" smooth="yes"/>
      <point x="442" y="-10"/>
      <point x="468" y="10"/>
      <point x="505" y="43" type="curve"/>
      <point x="499" y="52" type="line"/>
      <point x="483" y="37"/>
      <point x="461" y="17"/>
      <point x="440" y="17" type="curve" smooth="yes"/>
      <point x="418" y="17"/>
      <point x="408" y="31"/>
      <point x="408" y="65" type="curve" smooth="yes"/>
      <point x="408" y="95"/>
      <point x="423" y="159"/>
      <point x="431" y="196" type="curve" smooth="yes"/>
      <point x="552" y="760" type="line"/>
      <point x="346" y="760" type="line"/>
      <point x="344" y="750" type="line"/>
      <point x="358" y="750" type="line" smooth="yes"/>
      <point x="396" y="750"/>
      <point x="405" y="738"/>
      <point x="405" y="721" type="curve" smooth="yes"/>
      <point x="405" y="709"/>
      <point x="403" y="694"/>
      <point x="399" y="677" type="curve" smooth="yes"/>
      <point x="381" y="587" type="line" smooth="yes"/>
      <point x="378" y="573"/>
      <point x="372" y="542"/>
      <point x="369" y="521" type="curve"/>
      <point x="348" y="538"/>
      <point x="326" y="546"/>
      <point x="285" y="546" type="curve" smooth="yes"/>
      <point x="110" y="546"/>
      <point x="24" y="323"/>
      <point x="24" y="163" type="curve" smooth="yes"/>
      <point x="24" y="71"/>
      <point x="52" y="-10"/>
    </contour>
    <contour>
      <point x="192" y="25" type="curve" smooth="yes"/>
      <point x="168" y="25"/>
      <point x="147" y="52"/>
      <point x="147" y="144" type="curve" smooth="yes"/>
      <point x="147" y="324"/>
      <point x="222" y="533"/>
      <point x="317" y="533" type="curve" smooth="yes"/>
      <point x="338" y="533"/>
      <point x="355" y="524"/>
      <point x="366" y="508" type="curve"/>
      <point x="301" y="206" type="line" smooth="yes"/>
      <point x="285" y="132"/>
      <point x="237" y="25"/>
    </contour>
  </outline>
</glyph>
<glyph name="j" format="2">
  <advance width="280"/>
  <unicode hex="006A"/>
  <anchor x="-36" y="-239" name="bottom"/>
  <anchor x="246" y="765" name="top"/>
  <anchor x="365" y="765" name="topright"/>
  <outline>
    <contour>
      <point x="-45" y="-240" type="curve" smooth="yes"/>
      <point x="44" y="-240"/>
      <point x="122" y="-172"/>
      <point x="159" y="4" type="curve" smooth="yes"/>
      <point x="272" y="536" type="line"/>
      <point x="71" y="536" type="line"/>
      <point x="68" y="526" type="line"/>
      <point x="76" y="526" type="line" smooth="yes"/>
      <point x="114" y="526"/>
      <point x="125" y="516"/>
      <point x="125" y="489" type="curve" smooth="yes"/>
      <point x="125" y="473"/>
      <point x="120" y="455"/>
      <point x="115" y="431" type="curve" smooth="yes"/>
      <point x="14" y="-47" type="line" smooth="yes"/>
      <point x="-13" y="-178"/>
      <point x="-30" y="-224"/>
      <point x="-79" y="-224" type="curve" smooth="yes"/>
      <point x="-92" y="-224"/>
      <point x="-112" y="-221"/>
      <point x="-121" y="-218" type="curve"/>
      <point x="-124" y="-228" type="line"/>
      <point x="-95" y="-236"/>
      <point x="-76" y="-240"/>
    </contour>
    <contour>
      <point x="212" y="637" type="curve" smooth="yes"/>
      <point x="268" y="637"/>
      <point x="298" y="663"/>
      <point x="298" y="712" type="curve" smooth="yes"/>
      <point x="298" y="750"/>
      <point x="267" y="765"/>
      <point x="232" y="765" type="curve" smooth="yes"/>
      <point x="189" y="765"/>
      <point x="147" y="744"/>
      <point x="147" y="690" type="curve" smooth="yes"/>
      <point x="147" y="654"/>
      <point x="176" y="637"/>
    </contour>
  </outline>
</glyph>
<glyph name="s" format="2">
  <advance width="423"/>
  <unicode hex="0073"/>
  <anchor x="155" y="0" name="bottom"/>
  <anchor x="259" y="536" name="top"/>
  <anchor x="460" y="536" name="topright"/>
  <outline>
    <contour>
      <point x="174" y="-10" type="curve" smooth="yes"/>
      <point x="309" y="-10"/>
      <point x="376" y="66"/>
      <point x="376" y="166" type="curve" smooth="yes"/>
      <point x="376" y="244"/>
      <point x="340" y="280"/>
      <point x="265" y="327" type="curve" smooth="yes"/>
      <point x="201" y="368"/>
      <point x="176" y="391"/>
      <point x="176" y="439" type="curve" smooth="yes"/>
      <point x="176" y="499"/>
      <point x="210" y="536"/>
      <point x="252" y="536" type="curve" smooth="yes"/>
      <point x="300" y="536"/>
      <point x="316" y="500"/>
      <point x="318" y="427" type="curve" smooth="yes"/>
      <point x="318" y="412"/>
      <point x="317" y="395"/>
      <point x="316" y="376" type="curve"/>
      <point x="377" y="376"/>
      <point x="416" y="396"/>
      <point x="416" y="449" type="curve" smooth="yes"/>
      <point x="416" y="499"/>
      <point x="382" y="546"/>
      <point x="264" y="546" type="curve" smooth="yes"/>
      <point x="143" y="546"/>
      <point x="73" y="481"/>
      <point x="73" y="386" type="curve" smooth="yes"/>
      <point x="73" y="311"/>
      <point x="116" y="267"/>
      <point x="184" y="224" type="curve" smooth="yes"/>
      <point x="253" y="180"/>
      <point x="278" y="151"/>
      <point x="278" y="98" type="curve" smooth="yes"/>
      <point x="278" y="39"/>
      <point x="246" y="0"/>
      <point x="198" y="0" type="curve" smooth="yes"/>
      <point x="144" y="0"/>
      <point x="109" y="40"/>
      <point x="108" y="147" type="curve" smooth="yes"/>
      <point x="108" y="159"/>
      <point x="108" y="172"/>
      <point x="109" y="185" type="curve"/>
      <point x="53" y="185"/>
      <point x="12" y="158"/>
      <point x="12" y="102" type="curve" smooth="yes"/>
      <point x="12" y="36"/>
      <point x="73" y="-10"/>
    </contour>
  </outline>
</glyph>
<glyph name="cent" format="2">
  <advance width="488"/>
  <unicode hex="00A2"/>
  <anchor x="224" y="93" name="bottom"/>
  <anchor x="325" y="629" name="top"/>
  <anchor x="507" y="629" name="topright"/>
  <outline>
    <contour>
      <point x="212" y="0" type="line"/>
      <point x="222" y="0" type="line"/>
      <point x="372" y="714" type="line"/>
      <point x="362" y="714" type="line"/>
    </contour>
    <component base="c" xOffset="36" yOffset="93"/>
  </outline>
</glyph>
<glyph name="degree" format="2">
  <advance width="326"/>
  <unicode hex="00B0"/>
  <outline>
    <contour>
      <point x="229" y="441" type="curve" smooth="yes"/>
      <point x="298" y="441"/>
      <point x="341" y="495"/>
      <point x="341" y="582" type="curve" smooth="yes"/>
      <point x="341" y="670"/>
      <point x="298" y="724"/>
      <point x="229" y="724" type="curve" smooth="yes"/>
      <point x="160" y="724"/>
      <point x="118" y="670"/>
      <point x="118" y="582" type="curve" smooth="yes"/>
      <point x="118" y="495"/>
      <point x="160" y="441"/>
    </contour>
    <contour>
      <point x="231" y="461" type="curve" smooth="yes"/>
      <point x="173" y="461"/>
      <point x="138" y="508"/>
      <point x="138" y="584" type="curve" smooth="yes"/>
      <point x="138" y="658"/>
      <point x="173" y="704"/>
      <point x="231" y="704" type="curve" smooth="yes"/>
      <point x="287" y="704"/>
      <point x="321" y="658"/>
      <point x="321" y="584" type="curve" smooth="yes"/>
      <point x="321" y="508"/>
      <point x="287" y="461"/>
    </contour>
  </outline>
</glyph>
<glyph name="micro" format="2">
  <advance width="560"/>
  <unicode hex="00B5"/>
  <outline>
    <contour>
      <point x="56" y="-240" type="curve" smooth="yes"/>
      <point x="92" y="-240"/>
      <point x="129" y="-216"/>
      <point x="137" y="-167" type="curve"/>
      <point x="56" y="-167"/>
      <point x="25" y="-146"/>
      <point x="25" y="-81" type="curve" smooth="yes"/>
      <point x="25" y="-28"/>
      <point x="48" y="47"/>
      <point x="64" y="121" type="curve"/>
      <point x="75" y="66"/>
      <point x="86" y="-10"/>
      <point x="193" y="-10" type="curve" smooth="yes"/>
      <point x="252" y="-10"/>
      <point x="297" y="28"/>
      <point x="325" y="139" type="curve"/>
      <point x="328" y="139" type="line"/>
      <point x="328" y="31"/>
      <point x="350" y="-10"/>
      <point x="435" y="-10" type="curve" smooth="yes"/>
      <point x="495" y="-10"/>
      <point x="528" y="15"/>
      <point x="554" y="52" type="curve"/>
      <point x="549" y="59" type="line"/>
      <point x="525" y="28"/>
      <point x="504" y="13"/>
      <point x="483" y="13" type="curve" smooth="yes"/>
      <point x="460" y="13"/>
      <point x="449" y="32"/>
      <point x="449" y="77" type="curve" smooth="yes"/>
      <point x="449" y="112"/>
      <point x="454" y="149"/>
      <point x="464" y="198" type="curve" smooth="yes"/>
      <point x="534" y="536" type="line"/>
      <point x="402" y="536" type="line"/>
      <point x="335" y="218" type="line" smooth="yes"/>
      <point x="307" y="83"/>
      <point x="275" y="12"/>
      <point x="220" y="12" type="curve" smooth="yes"/>
      <point x="194" y="12"/>
      <point x="182" y="34"/>
      <point x="182" y="69" type="curve" smooth="yes"/>
      <point x="182" y="97"/>
      <point x="190" y="129"/>
      <point x="198" y="168" type="curve" smooth="yes"/>
      <point x="279" y="536" type="line"/>
      <point x="146" y="536" type="line"/>
      <point x="78" y="226" type="line" smooth="yes"/>
      <point x="33" y="25"/>
      <point x="-10" y="-91"/>
      <point x="-10" y="-165" type="curve" smooth="yes"/>
      <point x="-10" y="-219"/>
      <point x="21" y="-240"/>
    </contour>
  </outline>
</glyph>
<glyph name="AE" format="2">
  <advance width="788"/>
  <unicode hex="00C6"/>
  <anchor x="377" y="0" name="bottom"/>
  <anchor x="593" y="714" name="top"/>
  <outline>
    <contour>
      <point x="-57" y="0" type="line"/>
      <point x="154" y="0" type="line"/>
      <point x="156" y="10" type="line"/>
      <point x="103" y="10" type="line" smooth="yes"/>
      <point x="64" y="10"/>
      <point x="42" y="21"/>
      <point x="42" y="39" type="curve" smooth="yes"/>
      <point x="42" y="55"/>
      <point x="46" y="66"/>
      <point x="65" y="95" type="curve" smooth="yes"/>
      <point x="172" y="264" type="line"/>
      <point x="372" y="264" type="line"/>
      <point x="330" y="62" type="line" smooth="yes"/>
      <point x="320" y="19"/>
      <point x="297" y="10"/>
      <point x="257" y="10" type="curve" smooth="yes"/>
      <point x="238" y="10" type="line"/>
      <point x="236" y="0" type="line"/>
      <point x="710" y="0" type="line"/>
      <point x="756" y="186" type="line"/>
      <point x="746" y="186" type="line"/>
      <point x="730" y="137" type="line" smooth="yes"/>
      <point x="705" y="62"/>
      <point x="660" y="10"/>
      <point x="560" y="10" type="curve" smooth="yes"/>
      <point x="453" y="10" type="line"/>
      <point x="530" y="372" type="line"/>
      <point x="712" y="372" type="line"/>
      <point x="714" y="382" type="line"/>
      <point x="532" y="382" type="line"/>
      <point x="600" y="704" type="line"/>
      <point x="705" y="704" type="line" smooth="yes"/>
      <point x="754" y="704"/>
      <point x="799" y="677"/>
      <point x="799" y="609" type="curve" smooth="yes"/>
      <point x="799" y="579"/>
      <point x="793" y="540"/>
      <point x="791" y="528" type="curve"/>
      <point x="801" y="528" type="line"/>
      <point x="836" y="714" type="line"/>
      <point x="346" y="714" type="line"/>
      <point x="344" y="704" type="line"/>
      <point x="438" y="704" type="line"/>
      <point x="47" y="86" type="line" smooth="yes"/>
      <point x="11" y="29"/>
      <point x="-11" y="10"/>
      <point x="-46" y="10" type="curve" smooth="yes"/>
      <point x="-55" y="10" type="line"/>
    </contour>
    <contour>
      <point x="178" y="274" type="line"/>
      <point x="339" y="532" type="line" smooth="yes"/>
      <point x="377" y="593"/>
      <point x="399" y="624"/>
      <point x="449" y="704" type="curve"/>
      <point x="466" y="704" type="line"/>
      <point x="373" y="274" type="line"/>
    </contour>
  </outline>
</glyph>
<glyph name="lslash" format="2">
  <advance width="294"/>
  <unicode hex="0142"/>
  <anchor x="90" y="0" name="bottom"/>
  <anchor x="252" y="760" name="top"/>
  <anchor x="210" y="268" name="center"/>
  <anchor x="384" y="760" name="topright"/>
  <outline>
    <contour>
      <point x="3" y="254" type="line"/>
      <point x="298" y="400" type="line"/>
      <point x="300" y="414" type="line"/>
      <point x="5" y="267" type="line"/>
    </contour>
    <component base="l"/>
  </outline>
</glyph>
<glyph name="uni023C" format="2">
  <advance width="458"/>
  <unicode hex="023C"/>
  <anchor x="161" y="-174" name="bottom"/>
  <anchor x="357" y="714" name="top"/>
  <anchor x="481" y="536" name="topright"/>
  <outline>
    <contour>
      <point x="52" y="-136" type="line"/>
      <point x="64" y="-136" type="line"/>
      <point x="464" y="707" type="line"/>
      <point x="452" y="707" type="line"/>
    </contour>
    <component base="c" xOffset="10"/>
  </outline>
</glyph>
<glyph name="uni023D" format="2">
  <advance width="552"/>
  <unicode hex="023D"/>
  <anchor x="208" y="0" name="bottom"/>
  <anchor x="360" y="714" name="top"/>
  <anchor x="289" y="357" name="center"/>
  <anchor x="517" y="714" name="topright"/>
  <outline>
    <contour>
      <point x="58" y="370" type="line"/>
      <point x="389" y="370" type="line"/>
      <point x="392" y="380" type="line"/>
      <point x="60" y="380" type="line"/>
    </contour>
    <component base="L" xOffset="-2"/>
  </outline>
</glyph>
<glyph name="uni0249" format="2">
  <advance width="288"/>
  <unicode hex="0249"/>
  <anchor x="30" y="-240" name="bottom"/>
  <anchor x="243" y="765" name="top"/>
  <anchor x="363" y="765" name="topright"/>
  <outline>
    <contour>
      <point x="5" y="275" type="line"/>
      <point x="285" y="275" type="line"/>
      <point x="287" y="285" type="line"/>
      <point x="7" y="285" type="line"/>
    </contour>
    <component base="j" xOffset="-2"/>
  </outline>
</glyph>
<glyph name="eshsquatreversed" format="2">
  <advance width="426"/>
  <unicode hex="0285"/>
  <anchor x="76" y="-240" name="bottom"/>
  <anchor x="241" y="536" name="top"/>
  <outline>
    <contour>
      <point x="253" y="-240" type="curve" smooth="yes"/>
      <point x="343" y="-240"/>
      <point x="397" y="-205"/>
      <point x="397" y="-135" type="curve" smooth="yes"/>
      <point x="397" y="-101"/>
      <point x="384" y="-65"/>
      <point x="325" y="-65" type="curve"/>
      <point x="301" y="-200"/>
      <point x="275" y="-230"/>
      <point x="240" y="-230" type="curve" smooth="yes"/>
      <point x="213" y="-230"/>
      <point x="201" y="-213"/>
      <point x="201" y="-175" type="curve" smooth="yes"/>
      <point x="201" y="-153"/>
      <point x="207" y="-122"/>
      <point x="215" y="-87" type="curve" smooth="yes"/>
      <point x="300" y="255" type="line" smooth="yes"/>
      <point x="313" y="309"/>
      <point x="317" y="353"/>
      <point x="317" y="384" type="curve" smooth="yes"/>
      <point x="317" y="494"/>
      <point x="265" y="546"/>
      <point x="160" y="546" type="curve" smooth="yes"/>
      <point x="87" y="546"/>
      <point x="16" y="519"/>
      <point x="16" y="442" type="curve" smooth="yes"/>
      <point x="16" y="405"/>
      <point x="34" y="375"/>
      <point x="90" y="375" type="curve"/>
      <point x="116" y="520"/>
      <point x="139" y="536"/>
      <point x="164" y="536" type="curve" smooth="yes"/>
      <point x="198" y="536"/>
      <point x="207" y="504"/>
      <point x="207" y="474" type="curve" smooth="yes"/>
      <point x="207" y="454"/>
      <point x="204" y="431"/>
      <point x="199" y="405" type="curve" smooth="yes"/>
      <point x="116" y="61" type="line" smooth="yes"/>
      <point x="102" y="2"/>
      <point x="95" y="-46"/>
      <point x="95" y="-80" type="curve" smooth="yes"/>
      <point x="95" y="-204"/>
      <point x="163" y="-240"/>
    </contour>
  </outline>
</glyph>
<glyph name="hungarumlaut" format="2">
  <advance width="414"/>
  <unicode hex="02DD"/>
  <outline>
    <contour>
      <point x="288" y="606" type="line"/>
      <point x="298" y="606" type="line"/>
      <point x="350" y="644"/>
      <point x="445" y="725"/>
      <point x="479" y="760" type="curve"/>
      <point x="480" y="766" type="line"/>
      <point x="380" y="766" type="line"/>
      <point x="360" y="719"/>
      <point x="321" y="656"/>
      <point x="289" y="612" type="curve"/>
    </contour>
    <contour>
      <point x="112" y="606" type="line"/>
      <point x="122" y="606" type="line"/>
      <point x="176" y="643"/>
      <point x="266" y="721"/>
      <point x="303" y="760" type="curve"/>
      <point x="304" y="766" type="line"/>
      <point x="204" y="766" type="line"/>
      <point x="181" y="718"/>
      <point x="147" y="660"/>
      <point x="113" y="612" type="curve"/>
    </contour>
  </outline>
</glyph>
<glyph name="archaicsampi" format="2">
  <advance width="469"/>
  <unicode hex="0373"/>
  <anchor x="121" y="-240" name="bottom"/>
  <anchor x="286" y="536" name="top"/>
  <outline>
    <contour>
      <point x="71" y="-240" type="curve"/>
      <point x="205" y="-240" type="line"/>
      <point x="203" y="-234"/>
      <point x="203" y="-224"/>
      <point x="203" y="-212" type="curve" smooth="yes"/>
      <point x="203" y="-170"/>
      <point x="213" y="-97"/>
      <point x="224" y="-47" type="curve" smooth="yes"/>
      <point x="348" y="525" type="line"/>
      <point x="395" y="525" type="line" smooth="yes"/>
      <point x="447" y="525"/>
      <point x="468" y="504"/>
      <point x="468" y="460" type="curve" smooth="yes"/>
      <point x="468" y="443"/>
      <point x="463" y="412"/>
      <point x="457" y="382" type="curve" smooth="yes"/>
      <point x="452" y="357" type="line"/>
      <point x="462" y="357" type="line"/>
      <point x="500" y="536" type="line"/>
      <point x="198" y="536" type="line" smooth="yes"/>
      <point x="113" y="536"/>
      <point x="48" y="504"/>
      <point x="19" y="370" type="curve" smooth="yes"/>
      <point x="16" y="354" type="line"/>
      <point x="26" y="354" type="line"/>
      <point x="47" y="454"/>
      <point x="89" y="525"/>
      <point x="194" y="525" type="curve" smooth="yes"/>
      <point x="216" y="525" type="line"/>
      <point x="97" y="-37" type="line" smooth="yes"/>
      <point x="84" y="-94"/>
      <point x="69" y="-152"/>
      <point x="69" y="-203" type="curve" smooth="yes"/>
      <point x="69" y="-215"/>
      <point x="70" y="-228"/>
    </contour>
  </outline>
</glyph>
<glyph name="pamphyliandigamma" format="2">
  <advance width="574"/>
  <unicode hex="0377"/>
  <anchor x="217" y="0" name="bottom"/>
  <anchor x="331" y="536" name="top"/>
  <outline>
    <contour>
      <point x="441" y="-10" type="curve" smooth="yes"/>
      <point x="491" y="-10"/>
      <point x="522" y="18"/>
      <point x="524" y="34" type="curve"/>
      <point x="473" y="34"/>
      <point x="456" y="90"/>
      <point x="456" y="163" type="curve" smooth="yes"/>
      <point x="456" y="280"/>
      <point x="501" y="436"/>
      <point x="543" y="536" type="curve"/>
      <point x="447" y="536" type="line"/>
      <point x="175" y="86" type="line"/>
      <point x="270" y="536" type="line"/>
      <point x="69" y="536" type="line"/>
      <point x="67" y="526" type="line"/>
      <point x="75" y="526" type="line" smooth="yes"/>
      <point x="103" y="526"/>
      <point x="117" y="517"/>
      <point x="117" y="482" type="curve" smooth="yes"/>
      <point x="117" y="460"/>
      <point x="111" y="426"/>
      <point x="103" y="385" type="curve" smooth="yes"/>
      <point x="23" y="0" type="line"/>
      <point x="136" y="0" type="line"/>
      <point x="419" y="472" type="line"/>
      <point x="367" y="333"/>
      <point x="323" y="215"/>
      <point x="323" y="122" type="curve" smooth="yes"/>
      <point x="323" y="42"/>
      <point x="362" y="-10"/>
    </contour>
  </outline>
</glyph>
<glyph name="Omega" format="2">
  <advance width="661"/>
  <unicode hex="03A9"/>
  <anchor x="287" y="0" name="bottom"/>
  <anchor x="435" y="714" name="top"/>
  <anchor x="115" y="714" name="topleft"/>
  <outline>
    <contour>
      <point x="32" y="0" type="line"/>
      <point x="257" y="0" type="line"/>
      <point x="297" y="198" type="line"/>
      <point x="250" y="228"/>
      <point x="238" y="285"/>
      <point x="238" y="356" type="curve" smooth="yes"/>
      <point x="238" y="495"/>
      <point x="292" y="715"/>
      <point x="423" y="715" type="curve" smooth="yes"/>
      <point x="501" y="715"/>
      <point x="530" y="655"/>
      <point x="530" y="548" type="curve" smooth="yes"/>
      <point x="530" y="419"/>
      <point x="489" y="231"/>
      <point x="377" y="198" type="curve"/>
      <point x="335" y="0" type="line"/>
      <point x="579" y="0" type="line"/>
      <point x="627" y="196" type="line"/>
      <point x="617" y="196" type="line"/>
      <point x="605" y="156" type="line" smooth="yes"/>
      <point x="592" y="112"/>
      <point x="569" y="102"/>
      <point x="514" y="102" type="curve" smooth="yes"/>
      <point x="368" y="102" type="line"/>
      <point x="387" y="188" type="line"/>
      <point x="588" y="210"/>
      <point x="666" y="363"/>
      <point x="666" y="501" type="curve" smooth="yes"/>
      <point x="666" y="650"/>
      <point x="575" y="725"/>
      <point x="420" y="725" type="curve" smooth="yes"/>
      <point x="164" y="725"/>
      <point x="99" y="526"/>
      <point x="99" y="405" type="curve" smooth="yes"/>
      <point x="99" y="296"/>
      <point x="155" y="208"/>
      <point x="285" y="189" type="curve"/>
      <point x="265" y="99" type="line"/>
      <point x="128" y="99" type="line" smooth="yes"/>
      <point x="59" y="99"/>
      <point x="48" y="116"/>
      <point x="47" y="160" type="curve" smooth="yes"/>
      <point x="46" y="194" type="line"/>
      <point x="36" y="194" type="line"/>
    </contour>
  </outline>
</glyph>
<glyph name="gamma" format="2">
  <advance width="494"/>
  <unicode hex="03B3"/>
  <anchor x="140" y="-240" name="bottom"/>
  <anchor x="305" y="536" name="top"/>
  <anchor x="531" y="536" name="topright"/>
  <outline>
    <contour>
      <point x="104" y="-240" type="curve" smooth="yes"/>
      <point x="170" y="-240"/>
      <point x="236" y="-123"/>
      <point x="253" y="20" type="curve"/>
      <point x="358" y="126"/>
      <point x="497" y="341"/>
      <point x="497" y="482" type="curve" smooth="yes"/>
      <point x="497" y="519"/>
      <point x="482" y="546"/>
      <point x="447" y="546" type="curve" smooth="yes"/>
      <point x="418" y="546"/>
      <point x="397" y="526"/>
      <point x="391" y="483" type="curve"/>
      <point x="414" y="482"/>
      <point x="429" y="456"/>
      <point x="429" y="411" type="curve" smooth="yes"/>
      <point x="429" y="264"/>
      <point x="351" y="145"/>
      <point x="253" y="39" type="curve"/>
      <point x="256" y="421"/>
      <point x="249" y="545"/>
      <point x="160" y="545" type="curve" smooth="yes"/>
      <point x="110" y="545"/>
      <point x="72" y="522"/>
      <point x="37" y="495" type="curve"/>
      <point x="41" y="486" type="line"/>
      <point x="59" y="498"/>
      <point x="69" y="504"/>
      <point x="85" y="504" type="curve" smooth="yes"/>
      <point x="133" y="504"/>
      <point x="139" y="313"/>
      <point x="137" y="-11" type="curve"/>
      <point x="89" y="-61"/>
      <point x="58" y="-135"/>
      <point x="58" y="-187" type="curve" smooth="yes"/>
      <point x="58" y="-218"/>
      <point x="74" y="-240"/>
    </contour>
  </outline>
</glyph>
<glyph name="psi" format="2">
  <advance width="584"/>
  <unicode hex="03C8"/>
  <anchor x="208" y="-240" name="bottom"/>
  <anchor x="421" y="760" name="top"/>
  <outline>
    <contour>
      <point x="190" y="-240" type="line"/>
      <point x="234" y="-240" type="line"/>
      <point x="283" y="-8" type="line"/>
      <point x="461" y="0"/>
      <point x="554" y="251"/>
      <point x="554" y="419" type="curve" smooth="yes"/>
      <point x="554" y="494"/>
      <point x="534" y="545"/>
      <point x="488" y="545" type="curve" smooth="yes"/>
      <point x="450" y="545"/>
      <point x="435" y="515"/>
      <point x="431" y="480" type="curve"/>
      <point x="470" y="469"/>
      <point x="495" y="437"/>
      <point x="495" y="359" type="curve" smooth="yes"/>
      <point x="495" y="195"/>
      <point x="437" y="12"/>
      <point x="285" y="3" type="curve"/>
      <point x="446" y="760" type="line"/>
      <point x="403" y="760" type="line"/>
      <point x="241" y="3" type="line"/>
      <point x="200" y="9"/>
      <point x="173" y="40"/>
      <point x="173" y="111" type="curve" smooth="yes"/>
      <point x="173" y="158"/>
      <point x="186" y="219"/>
      <point x="199" y="279" type="curve" smooth="yes"/>
      <point x="254" y="536" type="line"/>
      <point x="69" y="536" type="line"/>
      <point x="67" y="526" type="line"/>
      <point x="86" y="526" type="line" smooth="yes"/>
      <point x="112" y="526"/>
      <point x="119" y="516"/>
      <point x="119" y="495" type="curve" smooth="yes"/>
      <point x="119" y="478"/>
      <point x="115" y="459"/>
      <point x="108" y="428" type="curve" smooth="yes"/>
      <point x="84" y="314" type="line" smooth="yes"/>
      <point x="73" y="260"/>
      <point x="62" y="211"/>
      <point x="62" y="159" type="curve" smooth="yes"/>
      <point x="62" y="53"/>
      <point x="126" y="-7"/>
      <point x="239" y="-9" type="curve"/>
    </contour>
  </outline>
</glyph>
<glyph name="palatalizationcomb-cy" format="2">
  <unicode hex="0484"/>
  <anchor x="46" y="536" name="_top"/>
  <anchor x="78" y="751" name="top"/>
  <outline>
    <contour>
      <point x="-83" y="612" type="line"/>
      <point x="-61" y="612" type="line" smooth="yes"/>
      <point x="43" y="612"/>
      <point x="87" y="674"/>
      <point x="163" y="674" type="curve" smooth="yes"/>
      <point x="202" y="674"/>
      <point x="219" y="658"/>
      <point x="219" y="627" type="curve" smooth="yes"/>
      <point x="219" y="622"/>
      <point x="219" y="617"/>
      <point x="218" y="612" type="curve"/>
      <point x="228" y="612" type="line"/>
      <point x="229" y="622"/>
      <point x="231" y="636"/>
      <point x="231" y="652" type="curve" smooth="yes"/>
      <point x="231" y="709"/>
      <point x="208" y="751"/>
      <point x="154" y="751" type="curve" smooth="yes"/>
      <point x="93" y="751"/>
      <point x="27" y="696"/>
      <point x="-54" y="696" type="curve" smooth="yes"/>
      <point x="-62" y="696" type="line"/>
    </contour>
  </outline>
</glyph>
<glyph name="uni0488" format="2">
  <advance width="813"/>
  <unicode hex="0488"/>
  <outline>
    <contour>
      <point x="532" y="462" type="curve"/>
      <point x="557" y="462" type="line"/>
      <point x="560" y="513"/>
      <point x="577" y="529"/>
      <point x="609" y="529" type="curve" smooth="yes"/>
      <point x="636" y="529"/>
      <point x="659" y="510"/>
      <point x="663" y="462" type="curve"/>
      <point x="688" y="462" type="line"/>
      <point x="684" y="518"/>
      <point x="658" y="557"/>
      <point x="609" y="557" type="curve" smooth="yes"/>
      <point x="560" y="557"/>
      <point x="535" y="520"/>
    </contour>
    <contour>
      <point x="105" y="-20" type="curve"/>
      <point x="130" y="-20" type="line"/>
      <point x="133" y="31"/>
      <point x="150" y="47"/>
      <point x="182" y="47" type="curve" smooth="yes"/>
      <point x="208" y="47"/>
      <point x="231" y="28"/>
      <point x="236" y="-20" type="curve"/>
      <point x="261" y="-20" type="line"/>
      <point x="257" y="36"/>
      <point x="231" y="75"/>
      <point x="182" y="75" type="curve" smooth="yes"/>
      <point x="131" y="75"/>
      <point x="107" y="38"/>
    </contour>
    <contour>
      <point x="317" y="-156" type="curve"/>
      <point x="342" y="-156" type="line"/>
      <point x="345" y="-105"/>
      <point x="362" y="-89"/>
      <point x="395" y="-89" type="curve" smooth="yes"/>
      <point x="420" y="-89"/>
      <point x="444" y="-108"/>
      <point x="449" y="-156" type="curve"/>
      <point x="474" y="-156" type="line"/>
      <point x="469" y="-100"/>
      <point x="443" y="-61"/>
      <point x="395" y="-61" type="curve" smooth="yes"/>
      <point x="344" y="-61"/>
      <point x="319" y="-98"/>
    </contour>
    <contour>
      <point x="38" y="224" type="curve"/>
      <point x="63" y="224" type="line"/>
      <point x="65" y="276"/>
      <point x="83" y="291"/>
      <point x="116" y="291" type="curve" smooth="yes"/>
      <point x="144" y="291"/>
      <point x="167" y="273"/>
      <point x="170" y="224" type="curve"/>
      <point x="195" y="224" type="line"/>
      <point x="192" y="280"/>
      <point x="164" y="319"/>
      <point x="116" y="319" type="curve" smooth="yes"/>
      <point x="66" y="319"/>
      <point x="41" y="282"/>
    </contour>
    <contour>
      <point x="105" y="462" type="curve"/>
      <point x="130" y="462" type="line"/>
      <point x="133" y="513"/>
      <point x="150" y="529"/>
      <point x="182" y="529" type="curve" smooth="yes"/>
      <point x="208" y="529"/>
      <point x="231" y="510"/>
      <point x="236" y="462" type="curve"/>
      <point x="261" y="462" type="line"/>
      <point x="257" y="518"/>
      <point x="231" y="557"/>
      <point x="182" y="557" type="curve" smooth="yes"/>
      <point x="131" y="557"/>
      <point x="107" y="520"/>
    </contour>
    <contour>
      <point x="532" y="-20" type="curve"/>
      <point x="557" y="-20" type="line"/>
      <point x="560" y="31"/>
      <point x="577" y="47"/>
      <point x="609" y="47" type="curve" smooth="yes"/>
      <point x="636" y="47"/>
      <point x="659" y="28"/>
      <point x="663" y="-20" type="curve"/>
      <point x="688" y="-20" type="line"/>
      <point x="684" y="36"/>
      <point x="658" y="75"/>
      <point x="609" y="75" type="curve" smooth="yes"/>
      <point x="560" y="75"/>
      <point x="535" y="38"/>
    </contour>
    <contour>
      <point x="602" y="224" type="curve"/>
      <point x="627" y="224" type="line"/>
      <point x="630" y="275"/>
      <point x="649" y="291"/>
      <point x="681" y="291" type="curve" smooth="yes"/>
      <point x="706" y="291"/>
      <point x="729" y="272"/>
      <point x="734" y="224" type="curve"/>
      <point x="759" y="224" type="line"/>
      <point x="755" y="280"/>
      <point x="728" y="319"/>
      <point x="681" y="319" type="curve" smooth="yes"/>
      <point x="629" y="319"/>
      <point x="604" y="282"/>
    </contour>
    <contour>
      <point x="317" y="601" type="curve"/>
      <point x="342" y="601" type="line"/>
      <point x="345" y="652"/>
      <point x="362" y="668"/>
      <point x="395" y="668" type="curve" smooth="yes"/>
      <point x="420" y="668"/>
      <point x="444" y="649"/>
      <point x="449" y="601" type="curve"/>
      <point x="474" y="601" type="line"/>
      <point x="469" y="657"/>
      <point x="443" y="696"/>
      <point x="395" y="696" type="curve" smooth="yes"/>
      <point x="344" y="696"/>
      <point x="319" y="659"/>
    </contour>
  </outline>
</glyph>
<glyph name="uni04CA" format="2">
  <advance width="555"/>
  <unicode hex="04CA"/>
  <anchor x="215" y="0" name="bottom"/>
  <anchor x="329" y="536" name="top"/>
  <outline>
    <contour>
      <point x="334" y="-210" type="line"/>
      <point x="413" y="-210" type="line"/>
      <point x="532" y="54" type="line"/>
      <point x="526" y="60" type="line"/>
      <point x="513" y="35" type="line"/>
    </contour>
    <component base="afii10079" xOffset="-9"/>
  </outline>
</glyph>
<glyph name="uni04CD" format="2">
  <advance width="782"/>
  <unicode hex="04CD"/>
  <anchor x="342" y="0" name="bottom"/>
  <anchor x="494" y="714" name="top"/>
  <anchor x="836" y="714" name="topright"/>
  <outline>
    <contour>
      <point x="537" y="-210" type="line"/>
      <point x="616" y="-210" type="line"/>
      <point x="700" y="0" type="line"/>
      <point x="701" y="10" type="line"/>
      <point x="683" y="10" type="line"/>
      <point x="685" y="0" type="line"/>
    </contour>
    <component base="M" xOffset="1"/>
  </outline>
</glyph>
<glyph name="uni051F" format="2">
  <advance width="510"/>
  <unicode hex="051F"/>
  <anchor x="198" y="0" name="bottom"/>
  <anchor x="312" y="536" name="top"/>
  <outline>
    <contour>
      <point x="426" y="315" type="line"/>
      <point x="433" y="323" type="line"/>
      <point x="295" y="477" type="line"/>
      <point x="288" y="470" type="line"/>
    </contour>
    <component base="afii10076"/>
  </outline>
</glyph>
<glyph name="endash" format="2">
  <advance width="500"/>
  <unicode hex="2013"/>
  <outline>
    <contour>
      <point x="-5" y="273" type="line"/>
      <point x="506" y="273" type="line"/>
      <point x="511" y="293" type="line"/>
      <point x="-1" y="293" type="line"/>
    </contour>
  </outline>
</glyph>
<glyph name="dagger" format="2">
  <advance width="390"/>
  <unicode hex="2020"/>
  <outline>
    <contour>
      <point x="123" y="-111" type="curve"/>
      <point x="133" y="-111" type="line"/>
      <point x="197" y="176"/>
      <point x="253" y="282"/>
      <point x="282" y="367" type="curve"/>
      <point x="262" y="508" type="line"/>
      <point x="410" y="457" type="line"/>
      <point x="437" y="568" type="line"/>
      <point x="264" y="518" type="line"/>
      <point x="360" y="760" type="line"/>
      <point x="262" y="760" type="line"/>
      <point x="255" y="518" type="line"/>
      <point x="102" y="567" type="line"/>
      <point x="78" y="456" type="line"/>
      <point x="253" y="508" type="line"/>
      <point x="171" y="367" type="line"/>
      <point x="182" y="244"/>
      <point x="157" y="70"/>
    </contour>
  </outline>
</glyph>
<glyph name="bracketleftwithquill" format="2">
  <advance width="326"/>
  <unicode hex="2045"/>
  <outline>
    <contour>
      <point x="-22" y="-128" type="line"/>
      <point x="210" y="-128" type="line"/>
      <point x="212" y="-118" type="line"/>
      <point x="175" y="-118" type="line" smooth="yes"/>
      <point x="141" y="-118"/>
      <point x="121" y="-112"/>
      <point x="121" y="-81" type="curve" smooth="yes"/>
      <point x="121" y="-72"/>
      <point x="124" y="-62"/>
      <point x="126" y="-49" type="curve" smooth="yes"/>
      <point x="202" y="312" type="line"/>
      <point x="305" y="312" type="line"/>
      <point x="307" y="322" type="line"/>
      <point x="205" y="322" type="line"/>
      <point x="280" y="680" type="line" smooth="yes"/>
      <point x="294" y="744"/>
      <point x="317" y="750"/>
      <point x="359" y="750" type="curve" smooth="yes"/>
      <point x="395" y="750" type="line"/>
      <point x="398" y="760" type="line"/>
      <point x="165" y="760" type="line"/>
    </contour>
  </outline>
</glyph>
<glyph name="uni2066" format="2">
  <advance width="1000"/>
  <unicode hex="2066"/>
  <outline>
    <contour>
      <point x="443" y="164" type="line"/>
      <point x="581" y="164" type="line"/>
      <point x="581" y="185" type="line"/>
      <point x="564" y="185" type="line" smooth="yes"/>
      <point x="553" y="185"/>
      <point x="543" y="188"/>
      <point x="543" y="209" type="curve" smooth="yes"/>
      <point x="543" y="288" type="line"/>
      <point x="570" y="288" type="line"/>
      <point x="617" y="200" type="line" smooth="yes"/>
      <point x="633" y="170"/>
      <point x="655" y="164"/>
      <point x="702" y="164" type="curve" smooth="yes"/>
      <point x="716" y="164" type="line"/>
      <point x="716" y="185" type="line"/>
      <point x="714" y="185" type="line" smooth="yes"/>
      <point x="699" y="185"/>
      <point x="688" y="195"/>
      <point x="674" y="218" type="curve" smooth="yes"/>
      <point x="627" y="300" type="line"/>
      <point x="653" y="311"/>
      <point x="681" y="334"/>
      <point x="681" y="376" type="curve" smooth="yes"/>
      <point x="681" y="424"/>
      <point x="647" y="450"/>
      <point x="572" y="450" type="curve" smooth="yes"/>
      <point x="443" y="450" type="line"/>
      <point x="443" y="429" type="line"/>
      <point x="460" y="429" type="line" smooth="yes"/>
      <point x="471" y="429"/>
      <point x="480" y="426"/>
      <point x="480" y="405" type="curve" smooth="yes"/>
      <point x="480" y="209" type="line" smooth="yes"/>
      <point x="480" y="188"/>
      <point x="471" y="185"/>
      <point x="460" y="185" type="curve" smooth="yes"/>
      <point x="443" y="185" type="line"/>
    </contour>
    <contour>
      <point x="58" y="-187" type="line"/>
      <point x="206" y="-187" type="line"/>
      <point x="206" y="-134" type="line"/>
      <point x="112" y="-134" type="line"/>
      <point x="112" y="-39" type="line"/>
      <point x="58" y="-39" type="line"/>
    </contour>
    <contour>
      <point x="58" y="19" type="line"/>
      <point x="112" y="19" type="line"/>
      <point x="112" y="151" type="line"/>
      <point x="58" y="151" type="line"/>
    </contour>
    <contour>
      <point x="265" y="-187" type="line"/>
      <point x="397" y="-187" type="line"/>
      <point x="397" y="-134" type="line"/>
      <point x="265" y="-134" type="line"/>
    </contour>
    <contour>
      <point x="58" y="210" type="line"/>
      <point x="112" y="210" type="line"/>
      <point x="112" y="343" type="line"/>
      <point x="58" y="343" type="line"/>
    </contour>
    <contour>
      <point x="456" y="-187" type="line"/>
      <point x="589" y="-187" type="line"/>
      <point x="589" y="-134" type="line"/>
      <point x="456" y="-134" type="line"/>
    </contour>
    <contour>
      <point x="647" y="-187" type="line"/>
      <point x="780" y="-187" type="line"/>
      <point x="780" y="-134" type="line"/>
      <point x="647" y="-134" type="line"/>
    </contour>
    <contour>
      <point x="58" y="402" type="line"/>
      <point x="112" y="402" type="line"/>
      <point x="112" y="534" type="line"/>
      <point x="58" y="534" type="line"/>
    </contour>
    <contour>
      <point x="182" y="164" type="line"/>
      <point x="416" y="164" type="line"/>
      <point x="419" y="253" type="line"/>
      <point x="396" y="253" type="line"/>
      <point x="390" y="223" type="line" smooth="yes"/>
      <point x="385" y="201"/>
      <point x="375" y="188"/>
      <point x="357" y="188" type="curve" smooth="yes"/>
      <point x="283" y="188" type="line"/>
      <point x="283" y="405" type="line"/>
      <point x="283" y="426"/>
      <point x="292" y="429"/>
      <point x="303" y="429" type="curve" smooth="yes"/>
      <point x="320" y="429" type="line"/>
      <point x="320" y="450" type="line"/>
      <point x="182" y="450" type="line"/>
      <point x="182" y="429" type="line"/>
      <point x="199" y="429" type="line" smooth="yes"/>
      <point x="211" y="429"/>
      <point x="219" y="426"/>
      <point x="219" y="403" type="curve" smooth="yes"/>
      <point x="219" y="211" type="line" smooth="yes"/>
      <point x="219" y="188"/>
      <point x="211" y="185"/>
      <point x="199" y="185" type="curve" smooth="yes"/>
      <point x="182" y="185" type="line"/>
    </contour>
    <contour>
      <point x="58" y="593" type="line"/>
      <point x="112" y="593" type="line"/>
      <point x="112" y="687" type="line"/>
      <point x="206" y="687" type="line"/>
      <point x="206" y="741" type="line"/>
      <point x="58" y="741" type="line"/>
    </contour>
    <contour>
      <point x="838" y="-187" type="line"/>
      <point x="986" y="-187" type="line"/>
      <point x="986" y="-39" type="line"/>
      <point x="933" y="-39" type="line"/>
      <point x="933" y="-134" type="line"/>
      <point x="838" y="-134" type="line"/>
    </contour>
    <contour>
      <point x="543" y="312" type="line"/>
      <point x="543" y="427" type="line"/>
      <point x="565" y="427" type="line" smooth="yes"/>
      <point x="600" y="427"/>
      <point x="614" y="411"/>
      <point x="614" y="371" type="curve" smooth="yes"/>
      <point x="614" y="331"/>
      <point x="602" y="312"/>
      <point x="566" y="312" type="curve" smooth="yes"/>
    </contour>
    <contour>
      <point x="933" y="19" type="line"/>
      <point x="986" y="19" type="line"/>
      <point x="986" y="151" type="line"/>
      <point x="933" y="151" type="line"/>
    </contour>
    <contour>
      <point x="265" y="687" type="line"/>
      <point x="397" y="687" type="line"/>
      <point x="397" y="741" type="line"/>
      <point x="265" y="741" type="line"/>
    </contour>
    <contour>
      <point x="725" y="164" type="line"/>
      <point x="863" y="164" type="line"/>
      <point x="863" y="185" type="line"/>
      <point x="846" y="185" type="line"/>
      <point x="835" y="185"/>
      <point x="826" y="188"/>
      <point x="826" y="211" type="curve"/>
      <point x="826" y="403" type="line"/>
      <point x="826" y="426"/>
      <point x="835" y="429"/>
      <point x="846" y="429" type="curve"/>
      <point x="863" y="429" type="line"/>
      <point x="863" y="450" type="line"/>
      <point x="725" y="450" type="line"/>
      <point x="725" y="429" type="line"/>
      <point x="742" y="429" type="line"/>
      <point x="754" y="429"/>
      <point x="762" y="426"/>
      <point x="762" y="403" type="curve"/>
      <point x="762" y="211" type="line"/>
      <point x="762" y="188"/>
      <point x="754" y="185"/>
      <point x="742" y="185" type="curve"/>
      <point x="725" y="185" type="line"/>
    </contour>
    <contour>
      <point x="933" y="210" type="line"/>
      <point x="986" y="210" type="line"/>
      <point x="986" y="343" type="line"/>
      <point x="933" y="343" type="line"/>
    </contour>
    <contour>
      <point x="456" y="687" type="line"/>
      <point x="589" y="687" type="line"/>
      <point x="589" y="741" type="line"/>
      <point x="456" y="741" type="line"/>
    </contour>
    <contour>
      <point x="933" y="402" type="line"/>
      <point x="986" y="402" type="line"/>
      <point x="986" y="534" type="line"/>
      <point x="933" y="534" type="line"/>
    </contour>
    <contour>
      <point x="647" y="687" type="line"/>
      <point x="780" y="687" type="line"/>
      <point x="780" y="741" type="line"/>
      <point x="647" y="741" type="line"/>
    </contour>
    <contour>
      <point x="933" y="593" type="line"/>
      <point x="986" y="593" type="line"/>
      <point x="986" y="741" type="line"/>
      <point x="838" y="741" type="line"/>
      <point x="838" y="687" type="line"/>
      <point x="933" y="687" type="line"/>
    </contour>
  </outline>
</glyph>
<glyph name="zerosuperior" format="2">
  <advance width="329"/>
  <unicode hex="2070"/>
  <outline>
    <contour>
      <point x="201" y="380" type="curve" smooth="yes"/>
      <point x="333" y="380"/>
      <point x="377" y="568"/>
      <point x="377" y="676" type="curve" smooth="yes"/>
      <point x="377" y="766"/>
      <point x="343" y="825"/>
      <point x="272" y="825" type="curve" smooth="yes"/>
      <point x="148" y="825"/>
      <point x="95" y="658"/>
      <point x="95" y="533" type="curve" smooth="yes"/>
      <point x="95" y="440"/>
      <point x="126" y="380"/>
    </contour>
    <contour>
      <point x="196" y="390" type="curve" smooth="yes"/>
      <point x="173" y="390"/>
      <point x="158" y="414"/>
      <point x="158" y="479" type="curve" smooth="yes"/>
      <point x="158" y="606"/>
      <point x="215" y="815"/>
      <point x="279" y="815" type="curve" smooth="yes"/>
      <point x="298" y="815"/>
      <point x="316" y="798"/>
      <point x="316" y="736" type="curve" smooth="yes"/>
      <point x="316" y="624"/>
      <point x="256" y="390"/>
    </contour>
  </outline>
</glyph>
<glyph name="sheqel" format="2">
  <advance width="823"/>
  <unicode hex="20AA"/>
  <outline>
    <contour>
      <point x="301" y="0" type="line"/>
      <point x="562" y="0" type="line" smooth="yes"/>
      <point x="691" y="0"/>
      <point x="742" y="65"/>
      <point x="742" y="224" type="curve" smooth="yes"/>
      <point x="742" y="599" type="line"/>
      <point x="632" y="599" type="line"/>
      <point x="632" y="179" type="line" smooth="yes"/>
      <point x="632" y="41"/>
      <point x="623" y="10"/>
      <point x="537" y="10" type="curve" smooth="yes"/>
      <point x="411" y="10" type="line"/>
      <point x="411" y="516" type="line"/>
      <point x="301" y="516" type="line"/>
    </contour>
    <contour>
      <point x="129" y="0" type="line"/>
      <point x="239" y="0" type="line"/>
      <point x="239" y="589" type="line"/>
      <point x="372" y="589" type="line" smooth="yes"/>
      <point x="458" y="589"/>
      <point x="466" y="555"/>
      <point x="466" y="420" type="curve" smooth="yes"/>
      <point x="466" y="82" type="line"/>
      <point x="575" y="82" type="line"/>
      <point x="575" y="375" type="line" smooth="yes"/>
      <point x="575" y="533"/>
      <point x="526" y="599"/>
      <point x="396" y="599" type="curve" smooth="yes"/>
      <point x="129" y="599" type="line"/>
    </contour>
  </outline>
</glyph>
<glyph name="planckconstantovertwopi" format="2">
  <advance width="545"/>
  <unicode hex="210F"/>
  <anchor x="215" y="0" name="bottom"/>
  <anchor x="329" y="268" name="center"/>
  <anchor x="377" y="760" name="top"/>
  <anchor x="546" y="760" name="topright"/>
  <outline>
    <contour>
      <point x="49" y="506" type="line"/>
      <point x="386" y="657" type="line"/>
      <point x="389" y="670" type="line"/>
      <point x="51" y="519" type="line"/>
    </contour>
    <component base="h" xOffset="-12"/>
  </outline>
</glyph>
<glyph name="propertyline" format="2">
  <advance width="763"/>
  <unicode hex="214A"/>
  <outline>
    <contour>
      <point x="175" y="0" type="line"/>
      <point x="656" y="0" type="line"/>
      <point x="708" y="206" type="line"/>
      <point x="698" y="206" type="line"/>
      <point x="682" y="152" type="line" smooth="yes"/>
      <point x="650" y="40"/>
      <point x="609" y="10"/>
      <point x="498" y="10" type="curve" smooth="yes"/>
      <point x="388" y="10" type="line"/>
      <point x="443" y="273" type="line"/>
      <point x="619" y="279"/>
      <point x="731" y="379"/>
      <point x="731" y="536" type="curve" smooth="yes"/>
      <point x="731" y="631"/>
      <point x="669" y="687"/>
      <point x="532" y="688" type="curve"/>
      <point x="556" y="799" type="line"/>
      <point x="422" y="799" type="line"/>
      <point x="398" y="688" type="line"/>
      <point x="131" y="688" type="line"/>
      <point x="129" y="678" type="line"/>
      <point x="140" y="678" type="line" smooth="yes"/>
      <point x="174" y="678"/>
      <point x="183" y="670"/>
      <point x="183" y="645" type="curve" smooth="yes"/>
      <point x="183" y="636"/>
      <point x="181" y="621"/>
      <point x="178" y="602" type="curve" smooth="yes"/>
      <point x="83" y="159" type="line"/>
      <point x="216" y="159" type="line"/>
      <point x="326" y="678" type="line"/>
      <point x="396" y="678" type="line"/>
      <point x="269" y="78" type="line" smooth="yes"/>
      <point x="257" y="23"/>
      <point x="244" y="10"/>
      <point x="200" y="10" type="curve" smooth="yes"/>
      <point x="177" y="10" type="line"/>
    </contour>
    <contour>
      <point x="446" y="284" type="curve"/>
      <point x="529" y="677" type="line"/>
      <point x="591" y="672"/>
      <point x="617" y="644"/>
      <point x="617" y="578" type="curve" smooth="yes"/>
      <point x="617" y="448"/>
      <point x="564" y="296"/>
    </contour>
  </outline>
</glyph>
<glyph name="rightangledottedsubstitutionmarker" format="2">
  <advance width="342"/>
  <unicode hex="2E01"/>
  <outline>
    <contour>
      <point x="162" y="246" type="line"/>
      <point x="182" y="246" type="line"/>
      <point x="182" y="694" type="line"/>
      <point x="327" y="694" type="line"/>
      <point x="327" y="714" type="line"/>
      <point x="162" y="714" type="line"/>
    </contour>
    <contour>
      <point x="289" y="465" type="curve" smooth="yes"/>
      <point x="308" y="465"/>
      <point x="324" y="479"/>
      <point x="324" y="515" type="curve" smooth="yes"/>
      <point x="324" y="548"/>
      <point x="311" y="565"/>
      <point x="289" y="565" type="curve" smooth="yes"/>
      <point x="265" y="565"/>
      <point x="254" y="547"/>
      <point x="254" y="515" type="curve" smooth="yes"/>
      <point x="254" y="479"/>
      <point x="270" y="465"/>
    </contour>
  </outline>
</glyph>
<glyph name="tildedotabove" format="2">
  <advance width="556"/>
  <unicode hex="2E1E"/>
  <outline>
    <contour>
      <point x="90" y="293" type="line"/>
      <point x="117" y="326"/>
      <point x="154" y="353"/>
      <point x="191" y="353" type="curve" smooth="yes"/>
      <point x="217" y="353"/>
      <point x="243" y="345"/>
      <point x="281" y="326" type="curve" smooth="yes"/>
      <point x="333" y="300"/>
      <point x="362" y="294"/>
      <point x="395" y="294" type="curve" smooth="yes"/>
      <point x="439" y="294"/>
      <point x="475" y="314"/>
      <point x="501" y="351" type="curve"/>
      <point x="501" y="413" type="line"/>
      <point x="474" y="379"/>
      <point x="436" y="354"/>
      <point x="400" y="354" type="curve" smooth="yes"/>
      <point x="374" y="354"/>
      <point x="348" y="362"/>
      <point x="310" y="381" type="curve" smooth="yes"/>
      <point x="256" y="407"/>
      <point x="229" y="413"/>
      <point x="196" y="413" type="curve" smooth="yes"/>
      <point x="153" y="413"/>
      <point x="117" y="393"/>
      <point x="90" y="356" type="curve"/>
    </contour>
    <contour>
      <point x="296" y="469" type="curve" smooth="yes"/>
      <point x="318" y="469"/>
      <point x="334" y="485"/>
      <point x="334" y="523" type="curve" smooth="yes"/>
      <point x="334" y="564"/>
      <point x="318" y="578"/>
      <point x="296" y="578" type="curve" smooth="yes"/>
      <point x="273" y="578"/>
      <point x="257" y="564"/>
      <point x="257" y="523" type="curve" smooth="yes"/>
      <point x="257" y="485"/>
      <point x="273" y="469"/>
    </contour>
  </outline>
</glyph>
<glyph name="tophalfsectionsign" format="2">
  <advance width="490"/>
  <unicode hex="2E39"/>
  <outline>
    <contour>
      <point x="267" y="129" type="curve"/>
      <point x="386" y="189"/>
      <point x="441" y="245"/>
      <point x="441" y="321" type="curve" smooth="yes"/>
      <point x="441" y="388"/>
      <point x="398" y="423"/>
      <point x="326" y="472" type="curve" smooth="yes"/>
      <point x="258" y="518"/>
      <point x="225" y="540"/>
      <point x="225" y="621" type="curve" smooth="yes"/>
      <point x="225" y="711"/>
      <point x="265" y="749"/>
      <point x="316" y="749" type="curve" smooth="yes"/>
      <point x="368" y="749"/>
      <point x="389" y="705"/>
      <point x="389" y="583" type="curve"/>
      <point x="431" y="583"/>
      <point x="466" y="601"/>
      <point x="466" y="652" type="curve" smooth="yes"/>
      <point x="466" y="710"/>
      <point x="422" y="759"/>
      <point x="326" y="759" type="curve" smooth="yes"/>
      <point x="203" y="759"/>
      <point x="142" y="680"/>
      <point x="142" y="582" type="curve" smooth="yes"/>
      <point x="142" y="535"/>
      <point x="156" y="502"/>
      <point x="167" y="482" type="curve"/>
      <point x="122" y="459"/>
      <point x="82" y="427"/>
      <point x="82" y="352" type="curve" smooth="yes"/>
      <point x="82" y="296"/>
      <point x="104" y="251"/>
      <point x="195" y="193" type="curve" smooth="yes"/>
      <point x="220" y="176"/>
      <point x="241" y="161"/>
    </contour>
    <contour>
      <point x="353" y="188" type="curve"/>
      <point x="327" y="220"/>
      <point x="305" y="235"/>
      <point x="244" y="275" type="curve" smooth="yes"/>
      <point x="162" y="327"/>
      <point x="137" y="348"/>
      <point x="137" y="397" type="curve" smooth="yes"/>
      <point x="137" y="435"/>
      <point x="153" y="459"/>
      <point x="173" y="474" type="curve"/>
      <point x="207" y="438"/>
      <point x="219" y="429"/>
      <point x="282" y="387" type="curve" smooth="yes"/>
      <point x="368" y="330"/>
      <point x="386" y="304"/>
      <point x="386" y="266" type="curve" smooth="yes"/>
      <point x="386" y="232"/>
      <point x="372" y="204"/>
    </contour>
  </outline>
</glyph>
<glyph name="uniA757" format="2">
  <advance width="543"/>
  <unicode hex="A757"/>
  <anchor x="149" y="-240" name="bottom"/>
  <anchor x="314" y="536" name="top"/>
  <anchor x="554" y="536" name="topright"/>
  <outline>
    <contour>
      <point x="195" y="-92" type="line"/>
      <point x="470" y="-92" type="line"/>
      <point x="473" y="-82" type="line"/>
      <point x="198" y="-82" type="line"/>
    </contour>
    <component base="q" xOffset="7"/>
  </outline>
</glyph>
<glyph name="uniA764" format="2">
  <advance width="556"/>
  <unicode hex="A764"/>
  <outline>
    <contour>
      <point x="-17" y="0" type="line"/>
      <point x="269" y="0" type="line"/>
      <point x="271" y="10" type="line"/>
      <point x="257" y="10" type="line" smooth="yes"/>
      <point x="223" y="10"/>
      <point x="203" y="15"/>
      <point x="203" y="39" type="curve" smooth="yes"/>
      <point x="203" y="47"/>
      <point x="204" y="56"/>
      <point x="206" y="65" type="curve"/>
      <point x="226" y="162" type="line"/>
      <point x="273" y="162" type="line" smooth="yes"/>
      <point x="493" y="162"/>
      <point x="541" y="274"/>
      <point x="541" y="373" type="curve" smooth="yes"/>
      <point x="541" y="490"/>
      <point x="458" y="524"/>
      <point x="329" y="524" type="curve" smooth="yes"/>
      <point x="304" y="524" type="line"/>
      <point x="319" y="592" type="line"/>
      <point x="397" y="592" type="line"/>
      <point x="399" y="602" type="line"/>
      <point x="321" y="602" type="line"/>
      <point x="341" y="695"/>
      <point x="369" y="704"/>
      <point x="406" y="704" type="curve" smooth="yes"/>
      <point x="415" y="704" type="line"/>
      <point x="417" y="714" type="line"/>
      <point x="133" y="714" type="line"/>
      <point x="131" y="704" type="line"/>
      <point x="140" y="704" type="line" smooth="yes"/>
      <point x="176" y="704"/>
      <point x="198" y="700"/>
      <point x="198" y="674" type="curve" smooth="yes"/>
      <point x="198" y="663"/>
      <point x="195" y="650"/>
      <point x="185" y="602" type="curve"/>
      <point x="107" y="602" type="line"/>
      <point x="105" y="592" type="line"/>
      <point x="183" y="592" type="line"/>
      <point x="71" y="63" type="line" smooth="yes"/>
      <point x="62" y="19"/>
      <point x="32" y="10"/>
      <point x="-6" y="10" type="curve" smooth="yes"/>
      <point x="-15" y="10" type="line"/>
    </contour>
    <contour>
      <point x="228" y="171" type="line"/>
      <point x="302" y="515" type="line"/>
      <point x="323" y="515" type="line" smooth="yes"/>
      <point x="382" y="515"/>
      <point x="410" y="480"/>
      <point x="410" y="409" type="curve" smooth="yes"/>
      <point x="410" y="290"/>
      <point x="353" y="171"/>
      <point x="247" y="171" type="curve" smooth="yes"/>
    </contour>
  </outline>
</glyph>
<glyph name="uniA765" format="2">
  <advance width="520"/>
  <unicode hex="A765"/>
  <anchor x="144" y="-240" name="bottom"/>
  <anchor x="357" y="760" name="top"/>
  <outline>
    <contour>
      <point x="80" y="608" type="line"/>
      <point x="358" y="608" type="line"/>
      <point x="360" y="618" type="line"/>
      <point x="82" y="618" type="line"/>
    </contour>
    <component base="thorn" xOffset="-4"/>
  </outline>
</glyph>
<glyph name="uniA7A2" format="2">
  <advance width="614"/>
  <unicode hex="A7A2"/>
  <anchor x="239" y="0" name="bottom"/>
  <anchor x="391" y="714" name="top"/>
  <anchor x="660" y="714" name="topright"/>
  <outline>
    <contour>
      <point x="-3" y="131" type="line"/>
      <point x="583" y="268" type="line"/>
      <point x="585" y="280" type="line"/>
      <point x="-1" y="143" type="line"/>
    </contour>
    <component base="K" xOffset="-7"/>
  </outline>
</glyph>
<glyph name="uniA7A8" format="2">
  <advance width="505"/>
  <unicode hex="A7A8"/>
  <anchor x="196" y="0" name="bottom"/>
  <anchor x="348" y="714" name="top"/>
  <anchor x="568" y="714" name="topright"/>
  <outline>
    <contour>
      <point x="49" y="318" type="line"/>
      <point x="497" y="429" type="line"/>
      <point x="499" y="440" type="line"/>
      <point x="51" y="329" type="line"/>
    </contour>
    <component base="S" xOffset="13"/>
  </outline>
</glyph>
<glyph name="uniAB4F" format="2">
  <advance width="560"/>
  <unicode hex="AB4F"/>
  <outline>
    <contour>
      <point x="21" y="277" type="line"/>
      <point x="539" y="277" type="line"/>
      <point x="541" y="287" type="line"/>
      <point x="23" y="287" type="line"/>
    </contour>
    <component base="uniAB4E" xOffset="-1"/>
  </outline>
</glyph>
<glyph name="uniAB60" format="2">
  <advance width="735"/>
  <unicode hex="AB60"/>
  <outline>
    <contour>
      <point x="485" y="-10" type="curve" smooth="yes"/>
      <point x="614" y="-10"/>
      <point x="706" y="55"/>
      <point x="706" y="177" type="curve" smooth="yes"/>
      <point x="706" y="266"/>
      <point x="658" y="311"/>
      <point x="547" y="311" type="curve" smooth="yes"/>
      <point x="525" y="311"/>
      <point x="496" y="307"/>
      <point x="467" y="303" type="curve"/>
      <point x="517" y="536" type="line"/>
      <point x="324" y="536" type="line"/>
      <point x="322" y="526" type="line"/>
      <point x="341" y="526" type="line" smooth="yes"/>
      <point x="364" y="526"/>
      <point x="372" y="518"/>
      <point x="372" y="493" type="curve" smooth="yes"/>
      <point x="372" y="480"/>
      <point x="369" y="457"/>
      <point x="363" y="432" type="curve" smooth="yes"/>
      <point x="321" y="242" type="line" smooth="yes"/>
      <point x="312" y="202"/>
      <point x="307" y="168"/>
      <point x="307" y="132" type="curve" smooth="yes"/>
      <point x="307" y="27"/>
      <point x="377" y="-10"/>
    </contour>
    <contour>
      <point x="152" y="-10" type="curve" smooth="yes"/>
      <point x="213" y="-10"/>
      <point x="245" y="19"/>
      <point x="276" y="55" type="curve"/>
      <point x="269" y="64" type="line"/>
      <point x="249" y="40"/>
      <point x="221" y="14"/>
      <point x="198" y="14" type="curve" smooth="yes"/>
      <point x="179" y="14"/>
      <point x="172" y="30"/>
      <point x="172" y="57" type="curve" smooth="yes"/>
      <point x="172" y="84"/>
      <point x="177" y="113"/>
      <point x="186" y="155" type="curve" smooth="yes"/>
      <point x="268" y="536" type="line"/>
      <point x="67" y="536" type="line"/>
      <point x="65" y="526" type="line"/>
      <point x="74" y="526" type="line" smooth="yes"/>
      <point x="112" y="526"/>
      <point x="120" y="518"/>
      <point x="120" y="494" type="curve" smooth="yes"/>
      <point x="120" y="477"/>
      <point x="116" y="453"/>
      <point x="111" y="431" type="curve" smooth="yes"/>
      <point x="64" y="203" type="line" smooth="yes"/>
      <point x="52" y="144"/>
      <point x="48" y="113"/>
      <point x="48" y="91" type="curve" smooth="yes"/>
      <point x="48" y="22"/>
      <point x="87" y="-10"/>
    </contour>
    <contour>
      <point x="481" y="0" type="curve" smooth="yes"/>
      <point x="450" y="0"/>
      <point x="431" y="21"/>
      <point x="431" y="74" type="curve" smooth="yes"/>
      <point x="431" y="124"/>
      <point x="453" y="240"/>
      <point x="464" y="291" type="curve"/>
      <point x="477" y="295"/>
      <point x="498" y="299"/>
      <point x="518" y="299" type="curve" smooth="yes"/>
      <point x="554" y="299"/>
      <point x="574" y="275"/>
      <point x="574" y="221" type="curve" smooth="yes"/>
      <point x="574" y="126"/>
      <point x="545" y="0"/>
    </contour>
  </outline>
</glyph>
<glyph name="f_f" format="2">
  <advance width="598"/>
  <unicode hex="FB00"/>
  <anchor x="178" y="-240" name="bottom"/>
  <anchor x="-25" y="-240" name="bottom_1"/>
  <anchor x="237" y="-240" name="bottom_2"/>
  <anchor x="229" y="0" name="caret_1"/>
  <anchor x="615" y="770" name="top"/>
  <anchor x="314" y="770" name="top_1"/>
  <anchor x="596" y="770" name="top_2"/>
  <anchor x="762" y="770" name="topright"/>
  <outline>
    <contour>
      <point x="-89" y="-240" type="curve" smooth="yes"/>
      <point x="-1" y="-240"/>
      <point x="111" y="-197"/>
      <point x="154" y="7" type="curve" smooth="yes"/>
      <point x="263" y="526" type="line"/>
      <point x="395" y="526" type="line"/>
      <point x="398" y="536" type="line"/>
      <point x="265" y="536" type="line"/>
      <point x="284" y="625" type="line" smooth="yes"/>
      <point x="302" y="709"/>
      <point x="315" y="743"/>
      <point x="355" y="743" type="curve" smooth="yes"/>
      <point x="393" y="743"/>
      <point x="396" y="702"/>
      <point x="396" y="597" type="curve"/>
      <point x="458" y="597"/>
      <point x="490" y="621"/>
      <point x="490" y="659" type="curve" smooth="yes"/>
      <point x="490" y="715"/>
      <point x="444" y="753"/>
      <point x="347" y="753" type="curve" smooth="yes"/>
      <point x="226" y="753"/>
      <point x="170" y="686"/>
      <point x="137" y="558" type="curve" smooth="yes"/>
      <point x="131" y="536" type="line"/>
      <point x="52" y="532" type="line"/>
      <point x="51" y="526" type="line"/>
      <point x="129" y="526" type="line"/>
      <point x="9" y="-58" type="line" smooth="yes"/>
      <point x="-19" y="-195"/>
      <point x="-45" y="-230"/>
      <point x="-100" y="-230" type="curve" smooth="yes"/>
      <point x="-113" y="-230"/>
      <point x="-130" y="-226"/>
      <point x="-139" y="-223" type="curve"/>
      <point x="-142" y="-232" type="line"/>
      <point x="-131" y="-236"/>
      <point x="-107" y="-240"/>
    </contour>
    <contour>
      <point x="179" y="-240" type="curve" smooth="yes"/>
      <point x="265" y="-240"/>
      <point x="379" y="-199"/>
      <point x="421" y="5" type="curve" smooth="yes"/>
      <point x="530" y="526" type="line"/>
      <point x="639" y="526" type="line"/>
      <point x="641" y="536" type="line"/>
      <point x="532" y="536" type="line"/>
      <point x="557" y="653" type="line" smooth="yes"/>
      <point x="571" y="725"/>
      <point x="585" y="760"/>
      <point x="616" y="760" type="curve" smooth="yes"/>
      <point x="648" y="760"/>
      <point x="652" y="717"/>
      <point x="650" y="614" type="curve"/>
      <point x="711" y="614"/>
      <point x="744" y="639"/>
      <point x="744" y="679" type="curve" smooth="yes"/>
      <point x="744" y="735"/>
      <point x="698" y="770"/>
      <point x="614" y="770" type="curve" smooth="yes"/>
      <point x="496" y="770"/>
      <point x="437" y="705"/>
      <point x="409" y="583" type="curve" smooth="yes"/>
      <point x="399" y="536" type="line"/>
      <point x="319" y="532" type="line"/>
      <point x="318" y="526" type="line"/>
      <point x="396" y="526" type="line"/>
      <point x="276" y="-60" type="line" smooth="yes"/>
      <point x="248" y="-196"/>
      <point x="222" y="-230"/>
      <point x="167" y="-230" type="curve" smooth="yes"/>
      <point x="154" y="-230"/>
      <point x="137" y="-226"/>
      <point x="128" y="-223" type="curve"/>
      <point x="125" y="-232" type="line"/>
      <point x="136" y="-236"/>
      <point x="160" y="-240"/>
    </contour>
  </outline>
</glyph>
<glyph name="a.sc" format="2">
  <advance width="547"/>
  <anchor x="193" y="0" name="bottom"/>
  <anchor x="327" y="571" name="top"/>
  <anchor x="519" y="571" name="topright"/>
  <outline>
    <contour>
      <point x="-48" y="0" type="line"/>
      <point x="105" y="0" type="line"/>
      <point x="107" y="10" type="line"/>
      <point x="61" y="10" type="line" smooth="yes"/>
      <point x="40" y="10"/>
      <point x="33" y="15"/>
      <point x="33" y="29" type="curve" smooth="yes"/>
      <point x="33" y="42"/>
      <point x="46" y="68"/>
      <point x="54" y="84" type="curve" smooth="yes"/>
      <point x="218" y="392" type="line" smooth="yes"/>
      <point x="251" y="457"/>
      <point x="259" y="473"/>
      <point x="284" y="520" type="curve"/>
      <point x="284" y="477"/>
      <point x="285" y="430"/>
      <point x="288" y="389" type="curve" smooth="yes"/>
      <point x="308" y="90" type="line" smooth="yes"/>
      <point x="308" y="79"/>
      <point x="309" y="66"/>
      <point x="309" y="58" type="curve" smooth="yes"/>
      <point x="309" y="24"/>
      <point x="301" y="10"/>
      <point x="263" y="10" type="curve" smooth="yes"/>
      <point x="234" y="10" type="line"/>
      <point x="232" y="0" type="line"/>
      <point x="482" y="0" type="line"/>
      <point x="484" y="10" type="line"/>
      <point x="482" y="10" type="line" smooth="yes"/>
      <point x="457" y="10"/>
      <point x="447" y="20"/>
      <point x="444" y="57" type="curve" smooth="yes"/>
      <point x="397" y="571" type="line"/>
      <point x="301" y="571" type="line"/>
      <point x="32" y="63" type="line" smooth="yes"/>
      <point x="8" y="17"/>
      <point x="-8" y="10"/>
      <point x="-38" y="10" type="curve" smooth="yes"/>
      <point x="-47" y="10" type="line"/>
    </contour>
    <contour>
      <point x="117" y="208" type="line"/>
      <point x="304" y="208" type="line"/>
      <point x="305" y="218" type="line"/>
      <point x="117" y="218" type="line"/>
    </contour>
  </outline>
</glyph>
<glyph name="aogonek.loclNAV" format="2">
  <advance width="523"/>
  <anchor x="167" y="-240" name="bottom"/>
  <anchor x="312" y="536" name="top"/>
  <anchor x="576" y="536" name="topright"/>
  <outline>
    <contour>
      <point x="213" y="-236" type="curve" smooth="yes"/>
      <point x="237" y="-236"/>
      <point x="261" y="-230"/>
      <point x="282" y="-220" type="curve"/>
      <point x="284" y="-209" type="line"/>
      <point x="270" y="-216"/>
      <point x="259" y="-219"/>
      <point x="243" y="-219" type="curve" smooth="yes"/>
      <point x="212" y="-219"/>
      <point x="192" y="-196"/>
      <point x="192" y="-142" type="curve" smooth="yes"/>
      <point x="192" y="-67"/>
      <point x="216" y="1"/>
      <point x="255" y="64" type="curve"/>
      <point x="235" y="47" type="line"/>
      <point x="170" y="-16"/>
      <point x="111" y="-75"/>
      <point x="111" y="-140" type="curve" smooth="yes"/>
      <point x="111" y="-200"/>
      <point x="149" y="-236"/>
    </contour>
    <component base="a"/>
  </outline>
</glyph>
<glyph name="brevegravecomb" format="2">
  <outline>
    <contour>
      <point x="-179" y="606" type="curve" smooth="yes"/>
      <point x="-106" y="606"/>
      <point x="-72" y="663"/>
      <point x="-55" y="731" type="curve"/>
      <point x="-65" y="731" type="line"/>
      <point x="-85" y="687"/>
      <point x="-128" y="666"/>
      <point x="-172" y="666" type="curve" smooth="yes"/>
      <point x="-222" y="666"/>
      <point x="-257" y="691"/>
      <point x="-263" y="731" type="curve"/>
      <point x="-273" y="731" type="line"/>
      <point x="-271" y="653"/>
      <point x="-248" y="606"/>
    </contour>
    <contour>
      <point x="-152" y="732" type="curve"/>
      <point x="-141" y="732" type="line"/>
      <point x="-140" y="739" type="line"/>
      <point x="-157" y="768"/>
      <point x="-167" y="805"/>
      <point x="-175" y="844" type="curve"/>
      <point x="-243" y="844" type="line"/>
      <point x="-245" y="837" type="line"/>
      <point x="-229" y="807"/>
      <point x="-183" y="758"/>
    </contour>
  </outline>
</glyph>
<glyph name="carondot" format="2">
  <advance width="531"/>
  <outline>
    <contour>
      <point x="370" y="751" type="curve" smooth="yes"/>
      <point x="396" y="751"/>
      <point x="420" y="770"/>
      <point x="420" y="814" type="curve" smooth="yes"/>
      <point x="420" y="845"/>
      <point x="403" y="862"/>
      <point x="375" y="862" type="curve" smooth="yes"/>
      <point x="343" y="862"/>
      <point x="325" y="835"/>
      <point x="325" y="798" type="curve" smooth="yes"/>
      <point x="325" y="766"/>
      <point x="343" y="751"/>
    </contour>
    <component base="caron" xOffset="82"/>
  </outline>
</glyph>
<glyph name="circumflexacutecomb" format="2">
  <anchor x="55" y="536" name="_top"/>
  <anchor x="112" y="817" name="top"/>
  <outline>
    <contour>
      <point x="-73" y="606" type="line"/>
      <point x="-61" y="606" type="line"/>
      <point x="-20" y="630"/>
      <point x="58" y="677"/>
      <point x="95" y="705" type="curve"/>
      <point x="114" y="681"/>
      <point x="180" y="633"/>
      <point x="210" y="606" type="curve"/>
      <point x="220" y="606" type="line"/>
      <point x="220" y="613" type="line"/>
      <point x="196" y="657"/>
      <point x="169" y="702"/>
      <point x="150" y="746" type="curve"/>
      <point x="48" y="746" type="line"/>
      <point x="13" y="701"/>
      <point x="-32" y="652"/>
      <point x="-73" y="613" type="curve"/>
    </contour>
    <contour>
      <point x="197" y="700" type="line"/>
      <point x="206" y="700" type="line"/>
      <point x="251" y="726"/>
      <point x="315" y="778"/>
      <point x="337" y="805" type="curve"/>
      <point x="338" y="812" type="line"/>
      <point x="265" y="812" type="line"/>
      <point x="250" y="780"/>
      <point x="221" y="737"/>
      <point x="198" y="708" type="curve"/>
    </contour>
  </outline>
</glyph>
<glyph name="cyrillicbreve" format="2">
  <advance width="467"/>
  <outline>
    <contour>
      <point x="310" y="606" type="curve" smooth="yes"/>
      <point x="426" y="606"/>
      <point x="482" y="698"/>
      <point x="521" y="759" type="curve"/>
      <point x="511" y="767" type="line"/>
      <point x="474" y="704"/>
      <point x="419" y="625"/>
      <point x="327" y="625" type="curve" smooth="yes"/>
      <point x="288" y="625"/>
      <point x="267" y="652"/>
      <point x="267" y="701" type="curve" smooth="yes"/>
      <point x="267" y="721"/>
      <point x="270" y="743"/>
      <point x="279" y="766" type="curve"/>
      <point x="183" y="756" type="line"/>
      <point x="176" y="738"/>
      <point x="173" y="723"/>
      <point x="173" y="709" type="curve" smooth="yes"/>
      <point x="173" y="652"/>
      <point x="205" y="606"/>
    </contour>
  </outline>
</glyph>
<glyph name="d.sc" format="2">
  <advance width="572"/>
  <anchor x="206" y="0" name="bottom"/>
  <anchor x="267" y="286" name="center"/>
  <anchor x="328" y="571" name="top"/>
  <anchor x="580" y="571" name="topright"/>
  <outline>
    <contour>
      <point x="-27" y="0" type="line"/>
      <point x="213" y="0" type="line" smooth="yes"/>
      <point x="408" y="0"/>
      <point x="545" y="172"/>
      <point x="545" y="377" type="curve" smooth="yes"/>
      <point x="545" y="507"/>
      <point x="464" y="571"/>
      <point x="328" y="571" type="curve" smooth="yes"/>
      <point x="94" y="571" type="line"/>
      <point x="92" y="561" type="line"/>
      <point x="120" y="561" type="line" smooth="yes"/>
      <point x="142" y="561"/>
      <point x="149" y="555"/>
      <point x="149" y="537" type="curve" smooth="yes"/>
      <point x="149" y="531"/>
      <point x="148" y="523"/>
      <point x="146" y="515" type="curve" smooth="yes"/>
      <point x="49" y="58" type="line" smooth="yes"/>
      <point x="41" y="19"/>
      <point x="33" y="10"/>
      <point x="6" y="10" type="curve" smooth="yes"/>
      <point x="-25" y="10" type="line"/>
    </contour>
    <contour>
      <point x="171" y="10" type="line"/>
      <point x="289" y="561" type="line"/>
      <point x="313" y="561" type="line" smooth="yes"/>
      <point x="381" y="561"/>
      <point x="412" y="519"/>
      <point x="412" y="435" type="curve" smooth="yes"/>
      <point x="412" y="256"/>
      <point x="336" y="10"/>
      <point x="199" y="10" type="curve" smooth="yes"/>
    </contour>
  </outline>
</glyph>
<glyph name="eth.sc" format="2">
  <advance width="583"/>
  <anchor x="218" y="0" name="bottom"/>
  <anchor x="340" y="571" name="top"/>
  <anchor x="271" y="286" name="center"/>
  <anchor x="584" y="571" name="topright"/>
  <outline>
    <contour>
      <point x="59" y="294" type="line"/>
      <point x="309" y="294" type="line"/>
      <point x="311" y="304" type="line"/>
      <point x="61" y="304" type="line"/>
    </contour>
    <component base="d.sc" xOffset="4"/>
  </outline>
</glyph>
<glyph name="f.sc" format="2">
  <advance width="449"/>
  <anchor x="107" y="0" name="bottom"/>
  <anchor x="274" y="571" name="top"/>
  <anchor x="493" y="571" name="topright"/>
  <outline>
    <contour>
      <point x="-26" y="0" type="line"/>
      <point x="234" y="0" type="line"/>
      <point x="236" y="10" type="line"/>
      <point x="215" y="10" type="line" smooth="yes"/>
      <point x="191" y="10"/>
      <point x="180" y="17"/>
      <point x="180" y="39" type="curve" smooth="yes"/>
      <point x="180" y="48"/>
      <point x="182" y="59"/>
      <point x="185" y="73" type="curve" smooth="yes"/>
      <point x="228" y="275" type="line"/>
      <point x="380" y="275" type="line"/>
      <point x="382" y="285" type="line"/>
      <point x="230" y="285" type="line"/>
      <point x="289" y="561" type="line"/>
      <point x="372" y="561" type="line" smooth="yes"/>
      <point x="436" y="561"/>
      <point x="458" y="544"/>
      <point x="458" y="492" type="curve" smooth="yes"/>
      <point x="458" y="480"/>
      <point x="455" y="458"/>
      <point x="452" y="424" type="curve"/>
      <point x="462" y="424" type="line"/>
      <point x="489" y="571" type="line"/>
      <point x="95" y="571" type="line"/>
      <point x="93" y="561" type="line"/>
      <point x="114" y="561" type="line" smooth="yes"/>
      <point x="140" y="561"/>
      <point x="149" y="554"/>
      <point x="149" y="533" type="curve" smooth="yes"/>
      <point x="149" y="526"/>
      <point x="146" y="513"/>
      <point x="143" y="498" type="curve" smooth="yes"/>
      <point x="51" y="67" type="line" smooth="yes"/>
      <point x="41" y="20"/>
      <point x="28" y="10"/>
      <point x="-3" y="10" type="curve" smooth="yes"/>
      <point x="-25" y="10" type="line"/>
    </contour>
  </outline>
</glyph>
<glyph name="f_f.ss02" format="2">
  <advance width="604"/>
  <anchor x="359" y="0" name="bottom"/>
  <anchor x="98" y="0" name="bottom_1"/>
  <anchor x="360" y="0" name="bottom_2"/>
  <anchor x="232" y="0" name="caret_1"/>
  <anchor x="408" y="770" name="top"/>
  <anchor x="305" y="770" name="top_1"/>
  <anchor x="587" y="770" name="top_2"/>
  <anchor x="768" y="770" name="topright"/>
  <outline>
    <contour>
      <point x="27" y="0" type="line"/>
      <point x="159" y="0" type="line"/>
      <point x="269" y="526" type="line"/>
      <point x="401" y="526" type="line"/>
      <point x="404" y="536" type="line"/>
      <point x="271" y="536" type="line"/>
      <point x="290" y="625" type="line" smooth="yes"/>
      <point x="308" y="709"/>
      <point x="321" y="743"/>
      <point x="361" y="743" type="curve" smooth="yes"/>
      <point x="399" y="743"/>
      <point x="402" y="702"/>
      <point x="402" y="597" type="curve"/>
      <point x="464" y="597"/>
      <point x="496" y="621"/>
      <point x="496" y="659" type="curve" smooth="yes"/>
      <point x="496" y="715"/>
      <point x="450" y="753"/>
      <point x="353" y="753" type="curve" smooth="yes"/>
      <point x="232" y="753"/>
      <point x="176" y="686"/>
      <point x="143" y="558" type="curve" smooth="yes"/>
      <point x="137" y="536" type="line"/>
      <point x="58" y="532" type="line"/>
      <point x="57" y="526" type="line"/>
      <point x="135" y="526" type="line"/>
    </contour>
    <contour>
      <point x="294" y="0" type="line"/>
      <point x="426" y="0" type="line"/>
      <point x="536" y="526" type="line"/>
      <point x="645" y="526" type="line"/>
      <point x="647" y="536" type="line"/>
      <point x="538" y="536" type="line"/>
      <point x="563" y="653" type="line" smooth="yes"/>
      <point x="577" y="725"/>
      <point x="591" y="760"/>
      <point x="622" y="760" type="curve" smooth="yes"/>
      <point x="654" y="760"/>
      <point x="658" y="717"/>
      <point x="656" y="614" type="curve"/>
      <point x="717" y="614"/>
      <point x="750" y="639"/>
      <point x="750" y="679" type="curve" smooth="yes"/>
      <point x="750" y="735"/>
      <point x="704" y="770"/>
      <point x="620" y="770" type="curve" smooth="yes"/>
      <point x="502" y="770"/>
      <point x="443" y="705"/>
      <point x="415" y="583" type="curve" smooth="yes"/>
      <point x="405" y="536" type="line"/>
      <point x="325" y="532" type="line"/>
      <point x="324" y="526" type="line"/>
      <point x="402" y="526" type="line"/>
    </contour>
  </outline>
</glyph>
<glyph name="oe.sc" format="2">
  <advance width="726"/>
  <anchor x="289" y="0" name="bottom"/>
  <anchor x="411" y="571" name="top"/>
  <outline>
    <contour>
      <point x="214" y="-8" type="curve" smooth="yes"/>
      <point x="244" y="-8"/>
      <point x="268" y="-4"/>
      <point x="292" y="0" type="curve"/>
      <point x="639" y="0" type="line"/>
      <point x="676" y="147" type="line"/>
      <point x="666" y="147" type="line"/>
      <point x="655" y="109" type="line" smooth="yes"/>
      <point x="633" y="30"/>
      <point x="604" y="10"/>
      <point x="528" y="10" type="curve" smooth="yes"/>
      <point x="428" y="10" type="line"/>
      <point x="488" y="293" type="line"/>
      <point x="633" y="293" type="line"/>
      <point x="636" y="303" type="line"/>
      <point x="490" y="303" type="line"/>
      <point x="545" y="561" type="line"/>
      <point x="623" y="561" type="line" smooth="yes"/>
      <point x="686" y="561"/>
      <point x="708" y="546"/>
      <point x="708" y="494" type="curve" smooth="yes"/>
      <point x="708" y="484"/>
      <point x="706" y="469"/>
      <point x="700" y="424" type="curve"/>
      <point x="710" y="424" type="line"/>
      <point x="740" y="571" type="line"/>
      <point x="403" y="571" type="line"/>
      <point x="383" y="577"/>
      <point x="360" y="580"/>
      <point x="336" y="580" type="curve" smooth="yes"/>
      <point x="169" y="580"/>
      <point x="50" y="387"/>
      <point x="50" y="192" type="curve" smooth="yes"/>
      <point x="50" y="65"/>
      <point x="115" y="-8"/>
    </contour>
    <contour>
      <point x="241" y="4" type="curve" smooth="yes"/>
      <point x="202" y="4"/>
      <point x="177" y="42"/>
      <point x="177" y="121" type="curve" smooth="yes"/>
      <point x="177" y="278"/>
      <point x="250" y="569"/>
      <point x="353" y="569" type="curve" smooth="yes"/>
      <point x="379" y="569"/>
      <point x="394" y="561"/>
      <point x="408" y="545" type="curve"/>
      <point x="299" y="21" type="line"/>
      <point x="277" y="8"/>
      <point x="260" y="4"/>
    </contour>
  </outline>
</glyph>
<glyph name="s.sc" format="2">
  <advance width="440"/>
  <anchor x="143" y="0" name="bottom"/>
  <anchor x="265" y="571" name="top"/>
  <anchor x="455" y="571" name="topright"/>
  <outline>
    <contour>
      <point x="171" y="-8" type="curve" smooth="yes"/>
      <point x="308" y="-8"/>
      <point x="379" y="68"/>
      <point x="379" y="179" type="curve" smooth="yes"/>
      <point x="379" y="284"/>
      <point x="318" y="320"/>
      <point x="265" y="351" type="curve" smooth="yes"/>
      <point x="209" y="385"/>
      <point x="171" y="409"/>
      <point x="171" y="468" type="curve" smooth="yes"/>
      <point x="171" y="520"/>
      <point x="200" y="568"/>
      <point x="254" y="568" type="curve" smooth="yes"/>
      <point x="322" y="568"/>
      <point x="329" y="495"/>
      <point x="329" y="414" type="curve"/>
      <point x="391" y="414"/>
      <point x="426" y="440"/>
      <point x="426" y="486" type="curve" smooth="yes"/>
      <point x="426" y="539"/>
      <point x="382" y="580"/>
      <point x="285" y="580" type="curve" smooth="yes"/>
      <point x="152" y="580"/>
      <point x="77" y="504"/>
      <point x="77" y="395" type="curve" smooth="yes"/>
      <point x="77" y="309"/>
      <point x="123" y="276"/>
      <point x="185" y="235" type="curve" smooth="yes"/>
      <point x="240" y="199"/>
      <point x="277" y="171"/>
      <point x="277" y="107" type="curve" smooth="yes"/>
      <point x="277" y="45"/>
      <point x="243" y="2"/>
      <point x="184" y="2" type="curve" smooth="yes"/>
      <point x="110" y="2"/>
      <point x="92" y="72"/>
      <point x="92" y="187" type="curve"/>
      <point x="39" y="187"/>
      <point x="5" y="157"/>
      <point x="5" y="107" type="curve" smooth="yes"/>
      <point x="5" y="42"/>
      <point x="58" y="-8"/>
    </contour>
  </outline>
</glyph>
<glyph name="zero.lf" format="2">
  <advance width="485"/>
  <outline>
    <contour>
      <point x="204" y="-11" type="curve" smooth="yes"/>
      <point x="418" y="-11"/>
      <point x="483" y="294"/>
      <point x="483" y="488" type="curve" smooth="yes"/>
      <point x="483" y="665"/>
      <point x="414" y="725"/>
      <point x="320" y="725" type="curve" smooth="yes"/>
      <point x="112" y="725"/>
      <point x="38" y="420"/>
      <point x="38" y="233" type="curve" smooth="yes"/>
      <point x="38" y="67"/>
      <point x="102" y="-11"/>
    </contour>
    <contour>
      <point x="209" y="-1" type="curve"/>
      <point x="171" y="-1"/>
      <point x="149" y="36"/>
      <point x="149" y="121" type="curve" smooth="yes"/>
      <point x="149" y="361"/>
      <point x="223" y="715"/>
      <point x="324" y="715" type="curve" smooth="yes"/>
      <point x="356" y="715"/>
      <point x="377" y="678"/>
      <point x="377" y="583" type="curve" smooth="yes"/>
      <point x="377" y="390"/>
      <point x="310" y="-1"/>
    </contour>
  </outline>
</glyph>
